<?xml version="1.0" standalone="no"?>
<!DOCTYPE svg PUBLIC "-//W3C//DTD SVG 20010904//EN"
 "http://www.w3.org/TR/2001/REC-SVG-20010904/DTD/svg10.dtd">
<svg version="1.0" xmlns="http://www.w3.org/2000/svg"
 width="1191.000000pt" height="1313.000000pt" viewBox="0 0 1191.000000 1313.000000"
 preserveAspectRatio="xMidYMid meet">

<g transform="translate(0.000000,1313.000000) scale(0.100000,-0.100000)"
fill="#000000" stroke="none">
<path d="M8580 11471 c-152 -13 -389 -55 -535 -96 -33 -9 -101 -27 -152 -41
-104 -27 -120 -33 -367 -137 -174 -74 -203 -91 -351 -198 -83 -60 -156 -99
-186 -99 -11 0 -53 10 -92 22 -68 20 -83 21 -371 15 -166 -3 -375 -11 -466
-17 -91 -6 -231 -15 -311 -20 -170 -11 -201 -6 -349 63 -52 24 -129 54 -170
67 -41 12 -96 33 -122 46 -74 37 -333 122 -406 133 -37 6 -148 24 -247 40
-564 94 -992 58 -2020 -170 -99 -22 -286 -62 -415 -89 -623 -130 -582 -120
-597 -152 -12 -23 -18 -25 -112 -32 -140 -9 -197 -23 -265 -65 -43 -26 -76
-38 -120 -43 -151 -16 -303 -39 -327 -49 -49 -19 -66 -102 -29 -139 11 -11 24
-20 30 -20 5 0 10 -13 10 -29 0 -44 17 -84 110 -256 48 -88 90 -172 93 -187 8
-32 38 -50 74 -46 37 4 59 54 74 163 6 49 17 99 24 110 21 34 40 128 26 133
-6 2 -18 17 -27 34 -15 29 -18 30 -65 26 -32 -3 -49 -1 -49 6 0 6 -16 37 -35
69 l-34 57 82 0 c117 0 210 -16 265 -45 36 -18 42 -24 25 -25 -14 0 -23 -6
-23 -15 0 -9 9 -15 23 -15 40 0 67 -12 67 -29 1 -25 27 -54 44 -48 10 4 16 -4
20 -28 4 -18 13 -38 21 -45 21 -18 19 -27 -12 -43 -16 -7 -26 -20 -24 -28 2
-8 6 -22 8 -31 3 -11 0 -18 -9 -18 -8 0 -19 -15 -26 -33 -7 -19 -26 -46 -43
-61 -24 -22 -29 -33 -24 -55 4 -19 -2 -44 -21 -81 -22 -43 -25 -61 -20 -99 4
-25 1 -79 -6 -118 l-12 -73 -40 7 c-23 3 -43 8 -45 10 -3 2 3 17 12 33 20 34
49 194 41 226 -6 22 -18 29 -79 45 -44 12 -67 2 -99 -41 -34 -45 -56 -56 -85
-41 -35 19 -51 42 -51 72 0 33 -6 36 -31 13 -16 -14 -26 -15 -77 -5 -68 13
-153 1 -216 -31 -75 -38 -213 -202 -273 -324 -24 -47 -36 -95 -52 -200 -12
-77 -26 -166 -31 -200 -13 -81 -14 -527 -1 -584 6 -25 15 -106 21 -180 5 -74
13 -148 16 -163 3 -16 6 -45 6 -65 0 -25 7 -45 23 -62 13 -15 30 -56 40 -100
10 -41 35 -122 55 -180 21 -58 40 -123 44 -145 4 -22 13 -69 21 -105 7 -36 19
-96 25 -135 6 -38 22 -126 35 -195 47 -247 55 -299 55 -348 0 -26 11 -81 25
-121 14 -40 28 -92 32 -116 3 -25 12 -50 19 -56 9 -7 14 -33 14 -72 0 -60 7
-77 66 -167 13 -19 27 -53 33 -75 31 -127 61 -165 207 -264 142 -96 217 -130
310 -138 71 -6 72 -6 78 -37 3 -17 2 -58 -3 -91 -5 -33 -7 -132 -6 -220 2
-124 6 -169 19 -200 10 -22 21 -62 26 -90 18 -101 40 -192 61 -250 11 -33 27
-99 34 -146 7 -47 18 -95 23 -105 27 -50 44 -138 39 -194 -6 -54 -5 -59 18
-74 23 -15 24 -20 19 -75 -6 -58 -6 -58 29 -85 20 -15 39 -38 43 -49 4 -12 18
-35 32 -52 31 -37 55 -93 76 -176 9 -35 24 -75 33 -88 8 -13 22 -49 30 -80 8
-31 18 -73 24 -94 13 -54 53 -129 86 -165 70 -75 117 -136 128 -165 14 -41 44
-92 73 -127 12 -15 22 -35 22 -43 0 -9 11 -28 24 -44 14 -16 28 -43 32 -59 4
-16 10 -33 14 -39 4 -5 11 -26 15 -45 14 -62 71 -132 88 -107 9 14 93 -72 160
-163 47 -64 248 -300 272 -320 19 -16 55 -87 55 -110 0 -11 16 -21 47 -31 38
-11 52 -22 69 -52 12 -21 34 -47 50 -57 26 -16 51 -39 106 -97 9 -10 54 -52
99 -93 45 -41 99 -93 118 -115 20 -22 51 -54 69 -72 17 -17 32 -38 32 -47 0
-17 37 -46 59 -46 9 0 27 -12 41 -26 14 -14 59 -51 100 -81 41 -31 100 -79
130 -107 86 -79 132 -119 162 -141 15 -11 60 -47 100 -81 40 -33 105 -80 143
-104 39 -24 84 -56 100 -71 17 -14 46 -35 65 -44 38 -20 87 -51 360 -230 102
-67 198 -129 213 -139 16 -10 33 -30 38 -46 12 -32 35 -45 53 -31 8 7 39 -3
97 -32 99 -49 239 -137 239 -149 0 -5 4 -7 8 -4 8 5 167 -55 227 -86 49 -25
284 -87 370 -98 226 -27 372 -40 466 -40 70 0 109 -4 117 -12 10 -10 17 -10
32 0 24 15 84 21 285 27 275 8 478 54 718 161 53 24 103 44 110 44 6 0 43 16
81 35 37 19 76 35 85 35 9 0 22 5 28 11 10 10 153 85 316 166 49 24 114 61
145 82 32 21 71 45 89 54 51 27 164 116 230 184 35 35 69 63 77 63 7 0 25 15
38 33 14 17 43 50 64 73 22 22 68 72 104 112 93 103 147 147 164 133 11 -9 18
-4 35 22 12 19 21 42 21 52 0 16 125 155 139 153 22 -2 31 5 31 24 0 14 36 59
103 127 157 162 312 340 421 485 54 72 122 158 151 191 28 33 76 94 105 135
29 41 82 113 118 159 120 157 313 455 377 582 21 41 55 99 76 129 21 30 41 72
44 93 4 20 11 37 15 37 19 0 38 32 45 77 8 53 21 84 41 96 8 5 14 25 14 47 0
29 7 47 30 72 17 18 30 42 30 53 0 11 7 31 15 45 30 54 45 94 45 123 0 17 7
38 16 48 8 9 20 50 26 90 5 40 14 81 19 91 5 9 9 24 9 34 0 9 7 22 16 28 9 7
22 36 30 64 8 29 21 76 30 105 8 28 19 72 24 97 6 25 21 86 35 135 15 50 30
117 36 150 10 64 34 136 57 173 9 14 15 51 16 97 0 41 4 75 9 75 4 0 5 11 1
24 -4 17 0 28 16 39 19 13 21 23 20 98 -2 137 8 239 32 314 20 62 23 91 23
253 0 164 2 182 17 182 9 0 23 8 30 18 7 11 25 25 39 33 37 19 246 241 297
314 89 129 128 322 101 507 -16 118 -15 299 3 331 9 16 12 102 11 307 -2 306
9 576 32 786 15 131 26 194 64 374 18 83 21 131 21 380 0 267 -10 389 -36 473
-3 10 -7 41 -8 67 -4 76 -53 162 -148 261 -78 80 -87 87 -150 104 -74 19 -215
17 -272 -5 -23 -8 -34 -7 -53 5 -13 9 -27 23 -30 31 -6 17 65 204 137 360 26
55 50 118 54 138 4 21 10 44 13 52 9 23 -22 16 -48 -12 -31 -34 -71 -54 -106
-54 l-28 0 3 157 c4 173 -3 208 -43 223 -26 10 -223 38 -456 65 -68 8 -176 23
-239 33 -63 11 -169 27 -235 36 -66 10 -145 22 -175 27 -84 13 -332 46 -565
75 -166 20 -269 26 -490 29 -154 2 -323 0 -375 -4z m2330 -773 c53 -82 53 -86
56 -253 3 -177 23 -278 83 -427 17 -42 31 -81 31 -87 0 -6 4 -19 9 -29 46 -91
50 -123 19 -145 -20 -13 -21 -18 -10 -37 7 -12 13 -47 12 -78 0 -31 5 -79 11
-107 6 -27 12 -70 13 -95 2 -25 8 -61 15 -80 6 -19 11 -56 11 -82 0 -28 8 -61
19 -80 10 -19 23 -63 29 -98 6 -36 14 -78 18 -94 4 -18 2 -31 -6 -36 -10 -6
-10 -18 1 -58 8 -34 9 -55 3 -64 -6 -7 -9 -58 -8 -113 2 -98 -9 -166 -30 -194
-6 -8 -12 -55 -12 -105 -2 -137 -14 -227 -35 -269 -12 -24 -19 -56 -18 -85 1
-26 -8 -81 -21 -122 -13 -44 -23 -104 -24 -145 -1 -41 -6 -74 -13 -80 -7 -6
-15 -51 -19 -105 -4 -52 -11 -100 -16 -107 -5 -6 -8 -50 -6 -97 2 -54 -1 -89
-9 -97 -7 -7 -9 -43 -6 -109 l6 -99 -34 -3 c-30 -3 -35 -7 -39 -38 -6 -41 -29
-80 -48 -80 -7 0 -18 11 -24 25 -11 25 -32 33 -42 16 -4 -5 -7 -43 -8 -85 -1
-53 -5 -77 -15 -80 -20 -8 -16 -34 7 -46 11 -6 20 -20 20 -31 0 -32 -28 -79
-44 -73 -7 3 -23 -6 -34 -20 -19 -24 -20 -25 -36 -7 -9 9 -16 27 -16 39 0 12
-6 22 -14 22 -11 0 -12 -8 -3 -42 5 -24 14 -48 19 -55 10 -13 -18 -33 -46 -33
-9 0 -16 -7 -16 -16 0 -8 -5 -12 -11 -8 -6 3 -9 15 -6 25 3 10 -1 23 -9 30
-11 9 -14 7 -14 -10 0 -13 -6 -21 -17 -21 -14 0 -13 -3 5 -23 26 -27 27 -40 7
-57 -8 -7 -15 -21 -15 -32 0 -17 -6 -20 -40 -16 -32 3 -41 0 -46 -14 -3 -10
-11 -18 -17 -18 -7 0 -12 -14 -12 -32 0 -29 -4 -33 -27 -36 -16 -2 -28 -8 -28
-15 0 -18 42 -57 63 -57 18 0 19 -5 13 -50 -8 -60 -31 -87 -83 -98 -21 -4 -44
-18 -55 -33 -19 -25 -19 -26 6 -70 14 -24 26 -54 26 -66 0 -19 -5 -23 -31 -23
l-32 0 6 -45 c6 -40 4 -45 -13 -45 -10 0 -24 8 -29 18 -8 13 -10 5 -11 -34 0
-37 -4 -54 -15 -58 -9 -3 -15 -18 -15 -36 0 -25 -4 -30 -25 -30 -23 0 -25 -3
-25 -53 0 -28 5 -68 10 -87 8 -28 7 -37 -5 -46 -8 -6 -15 -26 -15 -45 0 -34
-14 -31 -22 6 -3 11 -8 -17 -13 -62 -7 -79 -9 -82 -34 -85 -18 -2 -26 -9 -25
-20 1 -10 -2 -18 -7 -18 -4 0 -15 -16 -24 -35 -16 -33 -16 -36 5 -74 37 -65
23 -101 -78 -193 -29 -27 -52 -23 -52 9 0 7 -7 13 -15 13 -11 0 -15 -12 -15
-49 0 -32 -5 -53 -16 -62 -11 -9 -14 -22 -9 -46 7 -38 -2 -41 -38 -13 -31 25
-49 25 -71 1 -13 -14 -15 -29 -10 -73 5 -41 3 -58 -8 -69 -22 -22 -26 -40 -16
-77 12 -45 2 -72 -27 -72 -18 0 -25 -7 -30 -30 -8 -34 -12 -36 -43 -14 -12 8
-47 18 -77 21 -30 3 -55 10 -55 14 0 16 -18 9 -22 -9 -6 -21 -88 -65 -114 -60
-13 2 -20 -4 -22 -19 -3 -22 -11 -27 -42 -24 -11 1 -11 -1 3 -9 9 -6 17 -17
17 -24 0 -8 7 -19 15 -26 17 -14 21 -75 5 -85 -5 -3 -7 -11 -4 -18 9 -23 -35
-67 -66 -67 -38 0 -69 55 -50 90 9 17 9 29 -1 51 -11 28 -13 29 -30 13 -11
-10 -19 -24 -19 -32 0 -9 -6 -12 -17 -9 -51 16 -95 35 -105 45 -15 15 -45 15
-54 1 -9 -15 31 -46 67 -53 21 -4 28 -12 31 -33 2 -23 7 -27 26 -25 48 7 73
-51 29 -67 -22 -9 -23 -13 -20 -91 3 -91 5 -98 39 -110 14 -6 24 -18 24 -28 0
-23 35 -56 49 -48 5 4 17 -4 25 -16 18 -25 6 -48 -25 -48 -23 0 -39 -29 -39
-68 0 -24 -9 -37 -42 -62 -58 -42 -80 -37 -91 20 -13 70 -14 72 -36 60 -13 -6
-23 -29 -31 -65 -6 -30 -13 -55 -16 -55 -2 0 -13 18 -24 41 -15 28 -26 39 -36
35 -10 -4 -22 6 -35 29 -12 19 -25 35 -30 35 -13 0 -11 37 3 59 9 15 9 23 -1
35 -12 14 -16 13 -43 -9 -36 -30 -55 -21 -60 28 -5 49 -23 28 -23 -25 1 -30 7
-54 18 -66 14 -15 17 -35 15 -98 -1 -43 4 -98 11 -122 14 -50 8 -64 -27 -60
-23 3 -27 -2 -33 -31 -4 -19 -14 -38 -23 -43 -11 -6 -16 -24 -16 -59 0 -103
-80 -142 -92 -45 -4 38 -25 45 -37 12 -8 -20 -5 -35 16 -73 33 -63 42 -168 15
-175 -10 -3 -29 3 -42 14 -36 29 -45 9 -25 -57 9 -32 14 -63 11 -71 -3 -7 -24
-14 -48 -16 -39 -3 -43 -5 -40 -28 1 -14 5 -49 8 -78 5 -42 4 -52 -9 -52 -8 0
-20 7 -27 15 -7 9 -21 13 -34 9 -14 -3 -28 1 -35 10 -18 22 -31 11 -31 -28 0
-39 -30 -71 -57 -62 -10 3 -32 30 -48 59 -34 58 -58 67 -63 24 -3 -23 -8 -28
-26 -25 -13 1 -30 -3 -39 -10 -15 -12 -15 -17 0 -47 12 -24 13 -40 6 -61 -10
-30 -29 -35 -66 -19 -14 6 -20 2 -24 -13 -3 -13 -15 -22 -32 -24 -24 -3 -26
-6 -29 -63 -2 -32 1 -68 7 -80 16 -33 32 -148 22 -158 -15 -15 -40 0 -51 29
-19 50 -50 84 -76 84 -19 0 -29 8 -40 35 -8 20 -13 48 -12 63 3 23 -1 27 -32
32 -19 4 -45 13 -57 20 -18 12 -25 12 -35 2 -6 -6 -20 -12 -29 -12 -10 0 -25
-10 -33 -22 -9 -12 -26 -23 -38 -23 -36 -2 -68 -24 -68 -46 0 -25 -19 -33 -52
-20 -23 9 -25 15 -31 99 -3 49 -13 107 -22 128 -9 21 -28 72 -41 113 -27 82
-41 111 -60 126 -7 6 -14 20 -16 33 l-3 23 -22 -21 c-13 -11 -23 -17 -23 -12
0 17 -65 92 -80 92 -8 1 -31 15 -51 33 -31 27 -37 40 -42 87 -3 31 -1 62 3 70
5 9 13 50 19 92 8 56 20 92 45 135 40 69 66 141 66 186 1 60 21 122 77 232 30
61 79 164 108 230 29 66 66 150 84 186 17 37 31 82 31 103 0 29 5 39 23 46
l22 9 -22 0 c-13 1 -40 17 -62 36 -57 51 -119 75 -214 82 -72 5 -95 2 -177
-23 -85 -25 -110 -28 -245 -28 l-150 -1 -49 33 c-57 37 -78 39 -131 12 -51
-26 -63 -25 -77 5 -6 14 -15 25 -20 25 -4 0 -8 8 -8 19 0 27 -39 49 -78 43
-22 -3 -31 -9 -28 -17 6 -16 -24 -45 -47 -45 -36 0 -226 -80 -263 -111 -11 -9
-21 -9 -37 -1 -63 30 -134 8 -165 -51 -9 -18 -38 -52 -64 -77 -26 -25 -54 -61
-62 -80 -23 -58 -21 -365 4 -395 7 -9 9 -26 5 -45 -5 -23 -3 -30 8 -30 9 0 17
-15 21 -42 4 -23 12 -48 18 -55 6 -7 8 -22 5 -32 -3 -11 0 -22 6 -24 6 -2 12
-23 13 -46 3 -56 13 -65 50 -46 27 14 30 14 47 -7 12 -14 16 -30 12 -45 -3
-13 -1 -23 5 -23 5 0 10 -6 10 -13 0 -8 15 -35 34 -61 31 -44 34 -55 41 -152
l7 -104 -36 -50 c-20 -28 -44 -70 -53 -93 -9 -23 -28 -55 -42 -71 l-26 -28
-127 6 c-136 7 -205 24 -251 63 -57 47 -111 42 -168 -14 -36 -34 -38 -35 -75
-22 -22 7 -51 21 -66 31 -14 10 -34 18 -43 18 -34 0 -135 71 -135 96 0 8 9 23
20 34 11 11 20 28 20 38 0 10 11 29 25 42 13 12 22 27 18 33 -6 10 -56 -43
-79 -85 -15 -28 -42 -48 -66 -48 -7 0 -29 14 -47 31 -18 16 -44 37 -57 46 -13
8 -24 22 -24 29 0 8 -8 14 -18 14 -31 0 -62 124 -40 160 15 24 68 28 68 5 0
-28 19 -15 28 17 6 25 14 33 30 32 16 0 22 5 22 21 0 13 9 26 23 33 16 8 17
11 6 11 -9 1 -22 -6 -29 -14 -7 -8 -28 -15 -46 -15 -27 0 -34 -4 -34 -19 0
-20 -19 -31 -53 -31 -25 1 -57 22 -57 38 0 16 59 61 88 68 56 12 69 24 20 19
-39 -5 -48 -3 -48 9 0 20 51 72 79 81 35 11 13 25 -40 25 -37 0 -49 4 -49 15
0 8 9 15 19 15 11 0 23 5 27 11 8 13 -20 6 -85 -22 -54 -24 -64 -24 -85 0 -18
20 -15 61 5 61 5 0 9 5 9 10 0 7 -13 8 -35 4 -35 -6 -35 -6 -35 29 0 20 4 39
10 42 15 9 12 25 -4 25 -8 0 -16 7 -19 14 -4 11 -16 13 -41 9 -36 -6 -36 -5
-36 29 0 20 7 41 15 48 8 7 15 22 15 34 -1 20 -2 20 -14 4 -7 -10 -23 -18 -35
-18 -20 0 -22 4 -16 30 5 24 3 30 -10 30 -14 0 -16 5 -10 28 4 15 8 33 8 40 0
7 6 11 13 8 6 -2 23 8 38 22 34 36 26 65 -26 88 -50 23 -88 72 -95 123 -5 36
-2 42 32 73 21 18 48 39 61 46 13 7 24 22 24 33 0 23 47 68 71 69 26 0 40 24
33 57 -6 32 -12 28 85 64 17 6 35 8 41 4 14 -8 90 4 90 15 0 4 -16 11 -35 14
-26 5 -35 12 -35 26 0 11 7 20 15 20 24 0 55 32 55 57 0 16 6 23 19 23 33 0
51 11 51 31 0 16 8 19 45 19 27 0 45 5 45 11 0 12 48 8 98 -7 19 -5 22 -3 22
18 0 50 -23 57 -152 49 -107 -8 -121 -11 -154 -36 -20 -16 -39 -36 -41 -46 -3
-10 -20 -27 -39 -38 -19 -11 -34 -26 -34 -33 0 -7 -18 -21 -40 -31 -24 -10
-44 -27 -50 -41 -12 -33 -42 -47 -87 -44 -33 3 -37 0 -45 -29 -5 -18 -12 -33
-16 -33 -5 0 -18 -9 -29 -20 -18 -16 -22 -17 -27 -5 -8 23 -35 18 -47 -9 -21
-45 -89 -62 -89 -22 0 13 -9 30 -21 38 -19 12 -20 19 -14 81 4 37 12 67 17 67
18 0 38 -29 38 -54 l0 -26 25 22 c17 14 25 32 25 53 0 17 5 36 11 42 9 9 7 10
-9 6 -31 -8 -40 22 -14 50 14 16 18 31 15 53 -4 23 1 38 21 60 37 41 40 46 54
77 20 47 46 32 50 -28 3 -53 22 -89 22 -43 0 15 4 29 9 33 13 7 41 64 41 82 0
7 -9 13 -20 13 -27 0 -25 24 5 64 14 18 25 42 25 53 0 22 20 43 44 47 9 1 26
11 38 22 21 18 34 21 63 14 6 -1 20 -1 33 0 17 1 22 -4 22 -23 0 -40 -10 -57
-36 -57 -14 0 -29 -10 -39 -28 -9 -15 -32 -37 -51 -50 -19 -12 -34 -30 -34
-40 0 -10 -3 -21 -6 -25 -15 -15 -53 -144 -48 -161 4 -10 0 -22 -7 -27 -11 -7
-10 -9 3 -9 9 0 22 -8 27 -18 10 -16 11 -15 17 5 4 14 17 24 35 28 16 4 29 11
29 16 0 5 9 9 20 9 11 0 25 9 32 20 7 11 20 20 29 20 9 0 22 6 28 14 11 13 63
21 206 32 39 3 85 12 103 21 19 8 44 12 57 9 13 -3 27 -2 30 4 3 5 21 10 38
10 18 0 41 6 52 14 25 17 134 29 295 31 155 3 150 2 150 21 0 8 12 30 27 49
25 32 29 33 78 28 45 -5 53 -3 75 21 31 32 46 33 53 4 6 -21 7 -21 25 -5 24
22 95 23 113 1 8 -9 19 -33 25 -53 l11 -36 8 30 c16 64 50 124 70 126 11 1 4
5 -15 8 -19 4 -45 11 -57 15 -15 5 -23 3 -23 -4 0 -12 -26 -10 -146 12 -36 6
-69 8 -80 3 -20 -10 -58 -15 -113 -17 -32 -1 -71 -27 -71 -47 0 -11 -88 -34
-100 -26 -12 7 -140 -27 -140 -37 0 -4 -12 -8 -26 -8 -14 0 -32 -7 -41 -16 -9
-8 -25 -14 -37 -12 -12 1 -36 -7 -53 -20 -17 -12 -40 -22 -52 -22 -11 0 -24
-7 -29 -16 -7 -12 -30 -17 -98 -21 -76 -3 -95 -1 -129 16 -21 12 -44 21 -51
21 -20 0 -39 31 -49 84 -9 42 -14 52 -33 54 -30 5 -39 29 -19 50 15 15 15 18
-5 39 -21 22 -21 27 -11 109 6 48 15 89 20 93 6 3 13 19 17 34 4 15 14 31 24
34 9 3 30 18 45 32 26 24 29 25 55 11 15 -9 31 -25 37 -38 7 -15 15 -20 29
-16 10 3 24 7 31 8 23 3 97 77 92 91 -7 18 22 98 39 108 8 4 14 14 14 22 0 22
41 44 73 40 16 -2 30 -5 31 -7 26 -40 36 -61 36 -77 0 -10 6 -21 14 -24 11 -4
12 2 6 27 -6 28 -2 38 31 76 l38 44 32 -23 c29 -21 37 -23 71 -14 l38 10 6
-38 c7 -39 7 -39 90 -66 17 -6 38 -7 46 -2 8 4 43 9 78 10 56 2 65 0 78 -19
18 -28 32 -28 32 -2 0 11 7 23 15 26 23 9 47 -16 41 -42 -5 -18 0 -24 26 -33
18 -7 34 -7 37 -2 3 5 15 11 26 13 16 3 20 11 18 40 -2 36 -2 36 44 40 27 2
53 -2 64 -10 16 -11 19 -11 19 2 0 24 40 47 62 35 14 -7 20 -6 24 5 3 9 23 21
44 27 32 10 42 9 61 -5 13 -9 32 -16 43 -16 10 0 25 -8 32 -17 10 -15 15 -16
26 -5 7 7 13 22 13 35 0 18 5 21 27 19 14 -1 29 2 33 8 3 5 14 10 25 10 10 0
20 7 24 15 3 8 12 15 21 15 12 0 15 9 13 37 l-3 38 51 9 50 8 -2 85 c-2 61 -7
91 -20 111 -10 15 -17 31 -16 36 6 18 -10 45 -29 51 -16 6 -19 12 -14 36 4 16
1 54 -6 84 -12 54 -11 56 11 72 20 14 20 17 6 25 -20 11 -21 67 -1 94 8 10 15
27 15 37 0 13 8 17 35 17 19 0 45 -5 58 -12 12 -6 29 -14 37 -18 27 -13 31
-161 6 -189 -21 -23 -14 -79 16 -116 11 -14 18 -33 17 -42 -2 -10 1 -40 5 -66
5 -33 4 -53 -4 -62 -18 -22 -3 -135 19 -142 9 -4 19 -11 24 -17 4 -7 9 -2 13
12 8 29 18 28 31 -5 l11 -28 1 27 c1 15 7 31 14 35 15 10 37 48 37 65 0 7 11
34 23 59 l23 46 12 -25 c7 -14 12 -36 12 -49 0 -31 28 -30 39 1 6 14 6 39 0
62 -9 41 -11 108 -2 87 2 -7 10 -13 17 -13 20 0 36 42 33 88 -4 61 5 71 45 50
18 -9 41 -19 50 -22 10 -3 22 -23 28 -48 18 -72 21 -76 33 -50 5 12 14 22 19
22 4 0 8 7 8 15 0 7 6 18 14 22 8 4 16 17 18 28 3 18 -2 20 -39 17 -32 -2 -44
1 -55 16 -7 11 -25 22 -38 24 -32 4 -37 31 -11 57 23 23 27 51 10 68 -13 13 6
93 22 93 5 0 -1 15 -15 33 -15 19 -26 41 -26 50 0 11 -8 17 -25 17 -31 0 -41
21 -24 52 8 13 14 36 14 53 0 40 29 45 66 10 15 -16 27 -31 26 -34 -2 -7 7
-11 28 -11 8 0 15 7 15 16 0 19 40 64 56 64 6 0 17 7 24 15 7 8 21 15 32 15
15 0 19 6 16 27 -4 38 -59 73 -113 73 -27 0 -59 9 -86 25 -24 14 -52 25 -62
25 -10 0 -21 8 -24 18 -12 31 -43 43 -43 17 0 -10 -10 -15 -30 -15 -16 0 -30
-4 -30 -10 0 -12 -27 -14 -33 -2 -13 21 -18 72 -7 72 12 0 81 50 113 82 20 20
47 24 47 7 0 -5 12 -35 27 -65 l26 -54 58 0 c32 0 61 5 65 11 3 6 17 8 30 5
15 -4 24 -2 24 5 0 7 10 9 25 7 16 -4 25 -1 25 8 0 7 6 14 13 17 9 3 8 16 -6
58 -10 30 -19 70 -20 89 -2 31 1 35 26 38 22 3 31 -3 45 -27 9 -17 25 -31 35
-31 19 0 38 -37 29 -58 -2 -7 5 -20 17 -28 18 -13 21 -25 21 -80 0 -53 3 -66
18 -70 9 -3 24 -9 34 -14 19 -10 68 9 68 27 0 6 11 20 24 30 29 23 66 94 66
127 0 14 3 27 8 30 10 6 7 231 -3 271 -4 17 -19 50 -32 74 -13 24 -22 50 -19
58 3 7 -4 31 -15 53 -18 34 -26 40 -54 40 -27 0 -35 5 -45 30 -11 27 -17 30
-41 25 -24 -6 -31 -1 -52 32 -13 21 -32 44 -41 52 -8 7 -14 17 -11 21 2 4 -4
15 -15 25 -11 10 -20 26 -20 35 0 10 -8 28 -17 41 -31 42 -43 68 -43 93 0 16
-7 26 -21 29 -13 4 -19 12 -18 24 5 32 -11 73 -28 73 -23 0 -53 29 -53 51 0
10 -5 21 -11 25 -7 4 -9 21 -5 43 4 27 0 44 -14 66 -11 17 -20 38 -20 47 0 9
-9 33 -21 53 -12 19 -19 42 -16 49 4 9 -14 35 -44 64 -58 58 -65 92 -19 92 20
0 30 5 30 15 0 8 -4 15 -10 15 -5 0 -13 12 -16 28 -4 15 -16 37 -26 49 -11 12
-18 28 -15 35 2 7 0 21 -5 30 -18 36 -27 114 -17 158 7 29 6 47 -1 54 -5 5
-10 16 -10 24 0 18 -38 99 -50 107 -17 10 2 37 23 31 11 -2 30 2 43 10 21 14
24 14 38 -8 8 -13 24 -52 36 -88 42 -127 138 -334 199 -430 48 -75 121 -218
121 -235 0 -7 9 -20 20 -30 11 -10 20 -24 20 -32 0 -7 8 -17 18 -20 9 -4 67
-56 127 -116 100 -100 184 -163 316 -240 59 -33 366 -130 512 -161 253 -53
698 -52 907 2 41 11 104 27 140 35 74 17 296 143 367 208 24 22 47 39 52 39 5
0 45 26 88 58 103 77 251 227 310 316 27 39 64 91 83 117 84 107 233 443 292
654 65 232 132 640 153 925 12 159 32 227 83 283 31 33 52 34 72 5z m-4591
-342 c8 -5 16 -4 20 3 4 7 28 10 62 8 48 -3 54 -6 53 -25 0 -17 5 -22 26 -22
15 0 39 -9 53 -20 29 -23 90 -137 81 -152 -3 -5 1 -17 9 -26 25 -27 39 -74 27
-86 -17 -17 -11 -34 18 -49 15 -7 26 -19 24 -27 -2 -7 3 -27 11 -44 42 -87 41
-81 13 -109 -14 -14 -36 -27 -48 -29 -13 -2 -24 -10 -26 -18 -3 -18 51 -44 77
-37 14 3 20 -6 31 -40 7 -26 9 -48 4 -53 -13 -13 -54 -1 -54 16 0 18 -17 26
-41 19 -15 -5 -17 -10 -9 -20 6 -7 8 -19 5 -26 -3 -8 7 -21 25 -31 39 -22 40
-48 1 -48 -43 0 -59 -59 -22 -82 18 -11 18 -13 3 -25 -16 -12 -15 -15 6 -29
24 -18 32 -84 10 -84 -14 0 -48 -30 -48 -43 0 -5 11 -7 25 -5 20 4 29 -1 46
-29 22 -36 28 -59 34 -142 3 -30 10 -58 16 -61 8 -5 6 -15 -6 -34 -17 -26 -17
-28 4 -50 25 -26 27 -36 7 -36 -12 0 -12 -4 0 -30 15 -29 68 -80 84 -80 4 0
13 -13 19 -30 9 -26 20 -34 42 -32 4 1 13 -6 22 -16 16 -18 7 -62 -13 -62 -21
0 19 -58 55 -79 19 -11 40 -32 45 -47 6 -15 9 -27 8 -28 -2 -1 -16 -6 -33 -12
-48 -15 -41 -36 20 -63 61 -26 90 -64 87 -113 -2 -19 4 -28 18 -33 11 -3 25
-15 30 -26 6 -10 17 -19 25 -19 18 0 19 -5 3 -31 -11 -17 -10 -22 8 -37 12 -9
34 -36 48 -59 14 -24 32 -43 40 -43 27 0 48 -50 60 -145 7 -53 -2 -69 -52 -89
-26 -11 -55 -28 -64 -39 -11 -13 -24 -17 -38 -12 -18 6 -20 12 -15 49 6 36 3
47 -17 71 -21 24 -27 26 -47 16 -26 -14 -44 -56 -35 -83 3 -10 1 -24 -4 -31
-16 -21 -2 -85 20 -90 26 -7 21 -55 -7 -71 -28 -15 -45 -39 -40 -53 2 -7 -10
-24 -28 -37 -27 -21 -41 -24 -90 -22 -50 3 -57 1 -57 -15 0 -13 -7 -19 -22
-19 -16 0 -19 -3 -10 -9 15 -9 6 -61 -10 -61 -5 0 -16 -7 -24 -15 -22 -21 -29
-19 -41 13 l-11 27 -1 -27 c-1 -17 -7 -28 -15 -28 -8 0 -16 -7 -19 -14 -3 -8
-23 -18 -44 -22 -21 -4 -44 -11 -51 -17 -9 -7 -20 -4 -40 12 -15 12 -35 24
-44 28 -10 3 -18 13 -18 22 0 9 -9 22 -20 29 -17 10 -23 9 -39 -7 -13 -13 -27
-17 -41 -14 -16 4 -28 -2 -43 -21 -18 -21 -32 -27 -77 -30 -45 -3 -55 -7 -55
-23 0 -11 -8 -19 -22 -21 -12 -2 -27 -10 -33 -18 -16 -18 -32 -18 -67 3 -19
10 -38 14 -56 9 l-28 -7 27 -23 c40 -34 27 -57 -27 -51 -23 3 -47 1 -55 -5 -9
-8 -19 -8 -35 0 -41 23 -159 -12 -216 -63 -12 -10 -26 -16 -32 -12 -7 3 -11
-2 -11 -14 0 -14 8 -22 28 -27 15 -3 33 -7 40 -10 14 -4 27 -32 19 -40 -11
-11 -77 -11 -112 0 -88 27 -130 106 -50 93 39 -6 45 2 15 21 -11 7 -20 19 -20
26 0 8 -5 16 -12 18 -17 6 -18 118 0 118 8 0 16 9 19 20 3 11 11 20 18 20 7 0
29 16 49 36 38 38 68 42 74 10 3 -14 0 -17 -12 -13 -13 5 -15 2 -10 -20 6 -21
4 -25 -9 -20 -17 7 -29 -15 -21 -38 5 -11 11 -12 25 -4 11 5 28 7 38 4 10 -3
62 -7 114 -8 89 -3 95 -2 86 14 -7 14 -45 47 -88 76 -2 1 1 9 7 16 9 11 5 18
-16 34 -15 11 -37 23 -50 27 -12 4 -22 14 -22 23 0 11 -5 13 -17 7 -28 -12
-77 -6 -89 11 -15 21 -31 19 -37 -5 -3 -11 -16 -24 -29 -29 -12 -5 -31 -18
-41 -29 -11 -11 -25 -18 -33 -15 -8 3 -14 1 -14 -4 0 -22 -63 -103 -80 -103
-11 0 -20 -10 -24 -25 -4 -14 -12 -25 -20 -25 -18 0 -18 -47 0 -81 16 -32 103
-119 119 -119 7 0 20 -9 30 -20 10 -11 26 -20 35 -20 10 0 20 -6 23 -13 7 -18
105 -38 149 -31 18 3 53 -2 78 -11 41 -15 46 -15 57 1 10 14 15 15 28 4 10 -8
32 -11 61 -7 33 3 43 2 35 -6 -6 -6 -11 -15 -11 -19 0 -14 37 -9 50 7 7 8 20
15 30 15 10 0 21 7 24 15 4 12 10 14 25 5 11 -5 29 -10 40 -10 12 0 21 -5 21
-10 0 -6 7 -6 19 2 15 9 24 8 45 -5 14 -9 31 -17 37 -17 6 0 23 -12 36 -27 24
-25 25 -27 9 -60 -9 -19 -16 -45 -16 -58 0 -17 -4 -23 -14 -19 -17 7 -28 -55
-13 -74 7 -9 7 -16 -1 -24 -6 -6 -9 -16 -6 -22 2 -6 -7 -16 -21 -22 -28 -14
-39 0 -21 28 8 14 7 22 -5 34 -15 14 -19 14 -49 -1 -56 -29 -86 8 -34 42 24
15 25 17 8 24 -32 12 -108 -2 -126 -22 -23 -26 -38 -24 -38 6 0 28 -16 32 -46
11 -18 -13 -25 -13 -47 -1 -26 13 -32 9 -28 -17 0 -5 -6 -8 -14 -8 -9 0 -23
-16 -32 -35 -9 -19 -19 -35 -22 -35 -23 1 -50 50 -27 50 7 0 19 11 26 25 11
20 11 28 1 38 -10 9 -15 9 -24 -4 -7 -9 -17 -14 -23 -12 -24 8 -35 -23 -25
-68 14 -58 14 -90 1 -69 -7 12 -13 11 -34 -9 -14 -13 -25 -26 -24 -30 2 -20
-4 -22 -22 -6 -11 10 -20 25 -20 33 0 11 -8 8 -28 -11 -30 -29 -57 -35 -65
-14 -3 9 -7 9 -17 0 -8 -8 -11 -33 -8 -78 3 -55 2 -65 -12 -63 -9 2 -16 16
-18 36 -4 36 -22 34 -22 -2 0 -17 -21 -39 -79 -85 -81 -62 -91 -63 -91 -10 0
28 -12 24 -47 -16 -17 -19 -38 -35 -47 -35 -21 0 -35 -30 -29 -62 4 -23 1 -29
-21 -38 -18 -6 -26 -17 -26 -33 0 -15 -9 -29 -25 -37 -14 -7 -25 -17 -25 -22
0 -4 -9 -8 -20 -8 -11 0 -29 -15 -42 -33 -15 -21 -29 -31 -41 -29 -10 2 -29
-9 -46 -27 -16 -17 -31 -27 -35 -24 -11 11 -7 50 9 79 8 16 15 36 15 45 0 9 7
22 15 29 8 7 15 17 15 22 0 6 -6 5 -15 -2 -8 -6 -19 -9 -24 -6 -5 4 -28 -13
-50 -36 -23 -23 -41 -38 -41 -33 0 6 -5 2 -11 -8 -12 -21 -31 -13 -22 10 5 12
2 15 -9 10 -24 -9 -29 3 -11 29 9 14 12 28 8 32 -4 4 -10 1 -12 -5 -3 -7 -13
-13 -23 -13 -11 0 -23 -6 -27 -12 -10 -16 -67 -48 -85 -48 -7 0 -22 -11 -32
-25 -10 -14 -23 -25 -27 -25 -5 0 -9 11 -9 25 0 25 -14 33 -25 15 -10 -17 -38
-12 -31 6 3 8 0 21 -6 28 -17 18 -38 -4 -41 -41 -2 -22 -7 -27 -24 -25 -13 2
-23 -4 -26 -15 -9 -24 -28 -54 -49 -74 -10 -9 -18 -21 -18 -27 0 -5 -11 -20
-25 -33 -13 -13 -25 -32 -25 -41 0 -9 -4 -19 -8 -22 -5 -3 -30 -49 -57 -103
-49 -99 -97 -160 -122 -155 -15 3 -18 -24 -3 -33 13 -8 1 -58 -17 -68 -7 -4
-13 -18 -14 -30 -1 -44 -18 15 -18 66 -1 29 -5 46 -11 42 -5 -3 -10 -13 -10
-21 0 -8 -9 -35 -20 -60 -24 -51 -60 -63 -60 -19 0 14 -4 25 -10 25 -5 0 -10
-12 -10 -27 0 -16 -4 -34 -9 -42 -11 -17 -34 -4 -27 15 8 21 -12 17 -24 -5
-15 -29 -13 -56 3 -43 28 24 35 -1 22 -80 -7 -43 -10 -78 -8 -78 2 0 -1 -9 -7
-20 -8 -14 -7 -25 2 -40 9 -14 10 -25 3 -36 -16 -25 -30 -18 -35 18 -7 49 -34
44 -37 -7 -7 -111 -25 -197 -49 -232 -26 -39 -29 -49 -15 -58 9 -5 44 32 55
58 3 8 10 6 20 -7 18 -23 22 -141 6 -151 -6 -4 -8 -16 -4 -27 3 -11 2 -30 -4
-42 -17 -36 -34 -125 -27 -136 4 -7 18 -9 30 -6 32 8 39 -19 25 -92 -16 -75
-22 -84 -65 -108 -24 -13 -42 -33 -55 -61 -15 -35 -24 -43 -44 -43 -26 0 -36
23 -16 35 21 13 -11 36 -41 30 -23 -5 -31 -1 -45 22 -10 15 -33 45 -52 65 -37
39 -38 48 -16 141 11 48 -21 32 -34 -18 -12 -46 -42 -64 -42 -25 0 12 -7 32
-16 45 -9 13 -14 28 -11 32 10 16 16 159 9 192 -12 54 -31 50 -31 -6 0 -182
-13 -226 -69 -231 -39 -4 -53 6 -93 65 -33 47 -32 77 1 86 13 3 20 14 20 30 0
14 7 28 16 31 11 4 14 13 11 27 -3 11 -1 34 5 50 6 17 8 33 4 36 -11 11 -45
-28 -48 -56 -2 -20 -9 -27 -30 -29 -30 -4 -36 6 -16 26 19 19 0 27 -27 12 -19
-10 -25 -21 -25 -46 0 -66 -39 -53 -96 33 -21 32 -77 101 -125 153 -138 151
-199 235 -199 275 0 8 11 20 24 25 22 8 24 13 19 52 -3 24 -14 51 -23 60 -10
9 -26 38 -35 65 -10 26 -23 64 -30 83 -12 34 -33 41 -27 10 12 -76 12 -106 -4
-125 -11 -14 -18 -16 -21 -7 -3 6 -15 12 -28 12 -27 0 -35 17 -35 71 0 26 -5
42 -15 45 -11 5 -14 19 -11 61 4 61 9 68 39 68 17 0 21 7 24 43 2 39 1 42 -23
42 -20 0 -25 -4 -20 -16 4 -10 -4 -28 -19 -46 -15 -17 -29 -44 -32 -60 -8 -39
-18 -42 -38 -12 -15 23 -16 32 -5 65 15 44 8 59 -19 42 -33 -21 -46 0 -33 54
9 41 9 50 -5 61 -9 6 -23 12 -30 12 -7 0 -13 9 -13 19 0 11 -4 22 -10 26 -5 3
-8 30 -7 59 2 52 4 55 55 95 28 23 52 46 52 51 0 19 -38 10 -68 -15 -17 -14
-34 -25 -39 -25 -5 0 -20 -11 -33 -25 -13 -14 -27 -25 -32 -25 -18 0 -7 67 18
104 26 38 22 67 -8 52 -55 -27 -73 -44 -76 -74 -4 -40 -29 -42 -43 -4 -7 18
-7 32 0 44 13 21 2 88 -16 95 -23 9 -63 52 -63 68 0 9 -10 15 -23 15 -34 0
-101 140 -102 213 0 44 -3 52 -20 56 -29 5 -36 23 -20 48 20 30 19 46 -5 68
-16 15 -22 15 -35 5 -19 -16 -45 3 -45 31 0 11 -6 28 -12 39 -10 15 -10 22 0
32 14 14 16 64 3 72 -10 7 -8 72 3 97 4 10 -1 32 -13 55 -12 21 -21 46 -21 56
0 9 -5 29 -10 44 l-11 27 -22 -22 c-27 -25 -57 -28 -57 -5 0 8 -18 45 -41 82
-33 55 -40 74 -36 104 3 20 1 40 -4 45 -13 13 -14 53 -1 98 11 36 10 42 -8 55
-14 11 -21 30 -23 65 -3 43 -6 50 -23 47 -10 -2 -25 -9 -32 -14 -7 -6 -14 -9
-16 -7 -22 29 -47 83 -43 93 3 7 0 19 -6 25 -8 8 -6 14 8 24 19 15 13 37 -11
37 -8 0 -14 7 -14 15 0 8 6 15 14 15 41 0 24 43 -20 54 -47 12 -70 51 -72 125
-2 57 -6 68 -27 84 -14 10 -25 24 -25 30 0 6 -9 20 -19 31 -17 19 -18 25 -8
59 8 23 18 37 29 37 30 0 29 18 -3 44 -21 18 -30 33 -26 46 3 11 -1 24 -9 31
-17 14 -18 49 -3 100 10 31 9 44 -5 72 -20 44 -20 56 0 79 20 21 6 45 -29 50
-19 3 -22 10 -25 53 -2 27 -8 55 -14 62 -14 17 -2 92 19 115 15 17 15 19 0 36
-10 10 -17 24 -17 31 0 6 -7 14 -15 17 -18 7 -20 65 -4 81 8 8 6 20 -6 43 -13
25 -14 34 -4 46 8 10 9 18 2 25 -6 6 -7 26 -3 47 3 20 5 75 4 122 -2 47 2 95
8 107 15 29 1 110 -20 122 -16 9 -15 16 11 89 15 44 27 86 27 95 0 8 6 27 14
41 14 27 11 62 -5 72 -31 19 25 118 72 128 25 5 34 0 59 -27 24 -27 32 -30 47
-21 19 12 149 11 161 0 3 -3 14 -6 24 -6 11 0 18 -7 18 -19 0 -30 13 -32 39
-5 32 33 51 31 51 -6 0 -35 43 -71 63 -51 18 18 45 13 58 -10 7 -15 8 -24 0
-32 -14 -14 47 -77 76 -77 12 0 25 -5 29 -11 3 -6 15 -9 25 -6 21 6 17 15 75
-203 19 -74 41 -157 49 -185 27 -105 97 -297 148 -411 187 -416 455 -693 857
-887 145 -70 235 -102 399 -142 180 -43 524 -51 709 -16 141 28 466 143 587
209 189 102 254 151 473 352 62 58 121 109 130 113 9 5 27 23 39 40 13 18 45
63 73 100 27 37 50 74 50 81 0 8 7 19 15 26 8 7 14 18 13 24 -2 13 12 75 22
96 22 45 40 93 40 106 0 9 9 33 19 53 31 59 51 108 51 124 0 9 5 19 10 22 6 3
10 13 10 22 0 8 9 28 21 44 12 17 23 49 26 72 3 23 10 47 15 53 8 11 64 196
104 344 8 30 20 60 27 65 33 26 83 146 107 255 23 105 41 155 68 187 47 55
197 98 241 69z m5392 -626 c1 -41 8 -88 14 -105 7 -16 9 -39 5 -50 -4 -11 -5
-47 -2 -81 3 -39 0 -69 -8 -85 -13 -24 -23 -101 -21 -171 0 -20 -6 -41 -14
-48 -8 -7 -15 -20 -15 -30 0 -19 -19 -30 -51 -30 -21 0 -24 7 -59 115 -12 39
-31 80 -41 93 -10 13 -15 30 -12 38 3 8 -1 22 -10 32 -8 9 -22 33 -31 52 -8
19 -20 42 -25 50 -21 33 -61 130 -61 149 0 11 10 40 23 65 23 45 41 50 48 11
3 -13 14 -21 32 -23 15 -2 27 -8 27 -13 0 -5 13 -9 28 -9 37 0 52 -17 52 -57
0 -37 10 -41 40 -16 18 16 20 29 19 121 0 64 -6 117 -15 137 -8 19 -11 41 -7
50 4 12 16 -2 44 -52 33 -60 38 -77 40 -143z m-1206 8 c-14 -184 -55 -339
-140 -529 -26 -57 -50 -116 -55 -130 -8 -28 -90 -154 -142 -221 -16 -21 -26
-42 -23 -48 4 -6 1 -17 -5 -25 -7 -8 -9 -15 -5 -15 19 0 -142 -161 -190 -191
-31 -19 -100 -62 -153 -97 -112 -72 -192 -115 -199 -108 -3 2 6 10 19 17 93
49 328 240 426 347 227 247 367 561 439 990 19 116 37 122 28 10z m-10041 -48
c44 -28 90 -78 113 -125 11 -22 32 -62 47 -90 14 -27 26 -56 26 -62 0 -7 4
-13 9 -13 6 0 13 -20 17 -45 5 -35 3 -50 -10 -64 -9 -10 -25 -42 -35 -70 -10
-29 -36 -71 -58 -94 -21 -23 -45 -49 -52 -59 -14 -19 -61 -189 -61 -223 0 -13
-4 -25 -10 -27 -5 -1 -15 -37 -21 -78 -6 -41 -17 -87 -23 -102 l-12 -27 -45
67 c-36 54 -48 82 -57 140 -7 39 -23 106 -37 148 -14 43 -31 128 -39 191 -8
63 -20 120 -26 129 -16 19 -8 206 9 212 6 2 11 19 11 38 0 19 5 34 10 34 6 0
10 7 10 15 0 9 7 18 15 21 8 4 15 13 15 20 0 8 11 20 25 26 14 6 25 17 25 24
0 8 10 16 23 18 12 3 31 7 42 9 41 9 58 7 89 -13z m435 -1024 c13 -16 5 -89
-12 -122 -11 -21 -12 -36 -5 -54 5 -14 7 -50 3 -80 -4 -30 -8 -85 -9 -122 -1
-38 -7 -73 -14 -80 -23 -23 -14 -62 23 -91 21 -17 32 -33 29 -42 -4 -8 1 -33
10 -55 9 -22 16 -62 16 -89 0 -34 7 -58 23 -82 13 -19 26 -42 30 -51 3 -10 15
-18 25 -18 17 0 18 -7 14 -57 -2 -32 -9 -71 -15 -86 -11 -27 -14 -28 -57 -22
-47 7 -75 24 -52 32 15 6 16 30 0 35 -7 3 -6 12 6 30 10 15 16 32 15 40 -2 7
0 34 5 60 12 80 -35 152 -64 97 -17 -31 -20 -19 -9 30 9 38 7 47 -11 66 -11
12 -20 30 -20 41 0 11 -5 25 -11 31 -6 6 -16 20 -23 31 -6 11 -19 31 -29 45
-17 24 -17 26 3 62 12 21 19 44 16 51 -3 7 -1 16 5 20 5 3 9 13 8 22 -4 22 10
90 21 111 15 28 37 84 48 126 12 43 0 171 -18 189 -16 16 -12 58 8 79 16 19
17 16 25 -59 4 -43 12 -83 16 -88z m4256 -18 c-101 -124 -296 -297 -421 -376
-29 -18 -55 -43 -58 -55 -4 -16 -8 -19 -14 -9 -7 10 -27 4 -88 -26 -43 -22
-96 -47 -116 -55 -21 -9 -38 -21 -38 -26 0 -6 -7 -8 -15 -5 -8 3 -43 -3 -77
-15 -163 -54 -315 -80 -458 -80 -112 0 -229 14 -160 19 96 7 136 6 147 -2 7
-5 14 -5 17 1 3 5 39 9 80 10 41 0 86 5 101 11 15 6 51 13 79 16 83 8 261 71
411 144 77 38 149 77 160 87 12 10 33 25 47 33 74 42 195 142 303 249 113 115
159 150 100 79z"/>
<path d="M7451 7090 c-13 -11 -37 -20 -53 -20 -21 0 -31 -6 -35 -19 -3 -13
-11 -17 -26 -13 -20 4 -19 3 5 -17 34 -28 41 -27 54 7 8 20 20 31 41 35 19 4
32 14 36 26 3 12 4 21 4 21 -1 -1 -13 -10 -26 -20z"/>
<path d="M7354 6619 c-3 -6 1 -18 10 -27 15 -15 16 -14 16 11 0 27 -13 36 -26
16z"/>
<path d="M7403 6576 c-4 -7 -14 -15 -21 -17 -15 -5 32 -59 51 -59 8 0 7 4 -3
10 -9 5 -13 22 -12 44 3 38 -2 45 -15 22z"/>
<path d="M7291 6551 c-1 -27 2 -32 11 -23 8 8 8 17 0 34 -10 22 -11 21 -11
-11z"/>
<path d="M7336 6562 c-4 -6 -9 -41 -13 -77 -6 -62 -5 -66 16 -72 12 -3 21 -13
21 -24 0 -10 4 -20 9 -24 5 -3 13 24 16 60 6 53 4 69 -8 83 -9 10 -20 28 -25
41 -5 15 -11 20 -16 13z"/>
<path d="M7510 6491 c0 -11 -6 -26 -14 -33 -11 -11 -12 -27 -4 -74 8 -55 7
-60 -13 -77 -13 -10 -29 -15 -38 -11 -9 4 -25 7 -36 8 -16 1 -20 -5 -18 -29 4
-42 8 -58 18 -75 15 -25 12 -101 -5 -110 -13 -8 -11 -12 8 -26 18 -12 23 -23
19 -42 -7 -39 21 -109 54 -133 16 -11 29 -27 29 -34 0 -8 5 -17 12 -21 7 -4 8
-3 4 5 -4 6 0 24 10 39 28 45 105 113 122 110 24 -5 42 -101 31 -163 -7 -36
29 -30 52 9 11 20 22 36 24 36 2 0 24 -18 50 -39 26 -21 61 -42 78 -45 18 -4
49 -18 69 -31 21 -14 40 -25 43 -25 8 0 -15 42 -32 59 -12 12 -12 16 0 29 21
21 80 -1 108 -39 11 -16 24 -27 29 -24 12 8 44 -37 76 -105 15 -33 32 -60 37
-60 15 0 -2 83 -22 105 -28 31 -34 55 -12 55 24 0 57 -36 39 -43 -9 -3 -8 -9
7 -20 18 -14 21 -13 43 19 20 29 26 33 43 23 11 -5 23 -17 26 -25 4 -12 8 -12
19 3 11 16 13 13 20 -26 10 -60 46 -94 88 -85 17 3 33 10 34 15 2 5 12 9 23 9
10 0 19 5 19 10 0 6 15 10 33 10 27 0 36 -6 46 -26 14 -31 9 -41 -9 -19 -17
20 -50 19 -79 -4 -26 -20 -25 -49 3 -65 27 -15 65 -58 66 -73 0 -15 -36 -17
-45 -3 -3 6 -17 10 -30 10 -19 0 -28 9 -39 35 -16 38 -27 47 -19 15 4 -14 0
-20 -11 -20 -9 0 -16 -7 -16 -15 0 -11 -11 -15 -39 -15 -25 0 -41 -5 -45 -15
-3 -9 -18 -15 -34 -15 -35 0 -45 -9 -31 -26 14 -18 4 -44 -16 -44 -9 0 -31
-11 -49 -25 -18 -14 -42 -25 -53 -25 -12 0 -34 -7 -49 -15 -33 -17 -66 -19
-112 -6 -28 8 -34 7 -45 -10 -14 -23 -40 -25 -57 -4 -10 12 -24 14 -57 9 -25
-4 -43 -2 -43 3 0 9 -55 15 -235 28 -27 2 -75 9 -105 15 -30 6 -93 15 -140 19
-47 5 -95 14 -106 21 -13 8 -29 10 -40 5 -28 -12 -165 -17 -178 -6 -6 5 -50 6
-101 3 l-90 -7 60 -7 c125 -14 161 -24 199 -53 22 -16 45 -43 52 -60 l12 -30
134 -1 c73 -1 142 -2 153 -3 11 0 57 1 103 3 45 2 84 0 87 -4 2 -4 16 -5 30
-2 14 2 33 -2 42 -9 11 -10 47 -14 122 -14 95 0 106 -2 109 -18 3 -14 9 -17
25 -12 44 14 87 17 87 6 0 -6 9 -11 19 -11 10 0 22 -8 26 -17 6 -17 7 -17 20
0 11 15 25 18 82 16 37 -1 83 2 101 6 28 7 32 5 32 -13 0 -14 8 -21 30 -24 26
-4 30 -1 30 19 0 32 29 30 57 -4 22 -27 24 -27 37 -10 8 10 17 41 21 68 12 89
51 44 43 -51 -3 -33 -1 -35 31 -38 18 -2 38 1 44 7 6 6 24 11 39 11 15 0 28 5
28 10 0 6 10 10 21 10 17 0 20 -5 17 -25 -5 -22 -2 -25 23 -25 18 0 35 9 49
27 17 22 23 25 30 13 6 -8 10 -19 10 -23 0 -5 16 8 35 29 l35 37 -30 34 c-34
39 -35 47 -11 88 26 45 47 44 55 -4 3 -22 3 -47 0 -55 -3 -9 -1 -16 6 -16 8 0
9 26 5 98 -8 114 -11 126 -29 119 -18 -7 -56 20 -56 39 0 8 5 14 10 14 6 0 18
16 27 35 16 34 16 37 -9 92 -15 32 -35 82 -44 111 -10 28 -24 52 -31 52 -7 0
-10 -7 -7 -15 4 -8 2 -15 -4 -15 -6 0 -12 6 -14 12 -3 9 -11 9 -29 -3 -34 -22
-46 -15 -74 44 -31 63 -33 92 -4 58 11 -13 22 -22 24 -19 3 2 -9 17 -25 33
-31 29 -38 63 -19 82 14 14 -14 71 -39 80 -25 9 -62 44 -62 59 0 20 -19 27
-35 14 -21 -18 -47 -4 -43 22 2 18 -3 24 -21 26 -13 2 -32 14 -42 25 -16 20
-18 20 -19 4 0 -10 12 -42 26 -71 22 -46 24 -58 16 -90 -8 -27 -7 -43 3 -62
l13 -26 4 23 c2 19 10 24 36 26 25 1 32 -3 32 -18 0 -10 5 -19 11 -19 15 0 79
-73 79 -90 0 -9 -13 -2 -33 20 -18 19 -45 41 -60 47 -24 11 -27 11 -27 -7 0
-23 16 -35 23 -18 3 7 6 3 6 -8 1 -12 20 -38 44 -59 127 -110 167 -155 161
-179 -4 -17 -11 -22 -25 -19 -10 3 -19 9 -19 14 0 5 -9 9 -20 9 -11 0 -20 6
-20 13 0 7 -10 28 -23 46 -28 41 -76 51 -79 16 -2 -32 -1 -39 6 -62 6 -17 3
-23 -8 -23 -9 0 -16 7 -16 15 0 8 -6 15 -13 15 -7 0 -28 17 -46 37 -28 32 -31
39 -21 58 19 35 -10 80 -70 110 -58 29 -60 30 -60 11 0 -8 -5 -18 -11 -22 -7
-4 -10 -1 -7 6 5 17 -26 50 -48 50 -8 0 -29 15 -47 34 -27 29 -120 86 -141 86
-3 0 -6 -7 -6 -15 0 -21 -13 -19 -30 5 -8 11 -19 20 -25 20 -5 0 -28 16 -49
35 -22 19 -43 35 -48 35 -5 0 -13 10 -19 23 -10 21 -50 47 -75 47 -6 0 -17 7
-24 15 -7 8 -21 15 -31 15 -10 0 -25 13 -34 29 -8 16 -21 36 -29 44 -14 14
-23 33 -56 127 -28 76 -31 80 -72 80 -31 0 -38 -4 -38 -19z"/>
<path d="M7060 6402 c1 -12 25 -37 39 -40 9 -2 11 3 7 13 -3 9 -6 20 -6 24 0
4 -9 7 -20 8 -11 1 -20 -1 -20 -5z"/>
<path d="M7237 6356 c-5 -15 -6 -31 -3 -34 8 -8 18 25 14 45 -3 13 -6 10 -11
-11z"/>
<path d="M7307 6293 c-4 -3 -7 -13 -7 -21 0 -12 3 -12 15 -2 8 7 15 16 15 21
0 11 -14 12 -23 2z"/>
<path d="M7055 6252 c-3 -18 -11 -32 -16 -32 -5 0 -9 -4 -9 -10 0 -5 7 -10 16
-10 9 0 18 -9 21 -20 10 -38 21 -20 15 28 -7 65 -18 84 -27 44z"/>
<path d="M7360 6196 c0 -9 5 -16 10 -16 6 0 10 4 10 9 0 6 -4 13 -10 16 -5 3
-10 -1 -10 -9z"/>
<path d="M7261 6084 c0 -11 3 -14 6 -6 3 7 2 16 -1 19 -3 4 -6 -2 -5 -13z"/>
<path d="M8310 6052 c0 -12 19 -26 26 -19 2 2 -2 10 -11 17 -9 8 -15 8 -15 2z"/>
<path d="M8502 5838 c2 -6 15 -18 29 -27 l24 -15 -24 27 c-26 29 -35 34 -29
15z"/>
<path d="M6471 5363 c6 -7 24 -13 40 -13 22 0 29 -5 29 -19 0 -11 5 -23 10
-26 6 -3 10 -26 10 -51 0 -58 16 -56 24 4 10 70 26 85 104 98 l67 11 -65 3
c-190 9 -230 7 -219 -7z"/>
</g>
</svg>
