<?xml version="1.0" standalone="no"?>
<!DOCTYPE svg PUBLIC "-//W3C//DTD SVG 20010904//EN"
 "http://www.w3.org/TR/2001/REC-SVG-20010904/DTD/svg10.dtd">
<svg version="1.0" xmlns="http://www.w3.org/2000/svg"
 width="600.000000pt" height="600.000000pt" viewBox="0 0 600.000000 600.000000"
 preserveAspectRatio="xMidYMid meet">

<g transform="translate(0.000000,600.000000) scale(0.100000,-0.100000)"
fill="#000000" stroke="none">
<path d="M2735 5990 c-423 -43 -839 -171 -1189 -366 -734 -409 -1259 -1098
-1460 -1914 -61 -244 -80 -412 -81 -695 0 -272 9 -376 55 -605 86 -428 255
-816 508 -1165 483 -666 1189 -1093 2012 -1216 129 -19 197 -23 405 -24 272 0
376 9 605 55 428 86 816 255 1165 508 666 483 1093 1189 1216 2012 19 129 23
197 24 405 0 272 -9 376 -55 605 -88 442 -266 842 -532 1197 -483 647 -1183
1064 -1983 1183 -160 24 -540 35 -690 20z m556 -1079 c456 -105 825 -412 1009
-839 105 -242 145 -529 105 -753 -80 -458 -476 -1172 -1122 -2024 -114 -150
-135 -173 -183 -198 -45 -24 -65 -28 -111 -25 -92 6 -122 29 -242 184 -578
747 -1001 1478 -1130 1953 -29 109 -31 127 -31 291 -1 128 4 198 17 263 124
614 595 1071 1202 1167 99 15 387 4 486 -19z"/>
<path d="M2958 4311 c-15 -12 -67 -113 -142 -274 -92 -198 -123 -257 -142
-266 -13 -6 -145 -25 -292 -42 -158 -19 -276 -37 -289 -45 -26 -16 -38 -53
-29 -87 3 -12 98 -107 211 -212 130 -119 208 -198 212 -214 4 -16 -14 -132
-46 -291 -28 -146 -52 -274 -51 -286 0 -29 41 -64 75 -64 18 0 118 50 270 135
133 74 252 135 266 135 13 0 133 -61 266 -135 162 -91 251 -135 272 -135 34 0
71 33 71 64 1 12 -23 140 -51 286 -32 159 -50 275 -46 291 4 16 82 95 212 214
113 104 208 199 211 211 3 12 4 32 2 44 -7 48 -37 56 -328 90 -244 28 -277 34
-297 53 -12 12 -72 130 -132 262 -132 285 -158 317 -223 266z"/>
</g>
</svg>
