<svg width="340" height="340" viewBox="0 0 340 340" fill="none" xmlns="http://www.w3.org/2000/svg">
<path d="M153.333 2.13333C151.467 2.4 145.867 3.33333 140.667 4.13333C126.533 6.4 107.467 12.8 92.8 20.4C45.3333 44.6667 12.5333 89.2 3.33332 142.267C0.799986 157.067 0.799986 184.533 3.33332 199.467C15.4667 269.067 70.8 324.4 140.667 336.933C155.2 339.467 183.467 339.733 197.333 337.467C219.6 333.6 244.8 323.6 264.667 310.533C278.267 301.467 300.267 279.733 309.333 266.133C338.667 222.133 346.533 167.333 330.533 118.4C311.467 60 262.8 16.6667 202.667 4.66666C192.8 2.66666 159.733 0.93333 153.333 2.13333ZM266 64C293.867 67.8667 292 67.2 292 72.6667C292 76.2667 292.4 77.0667 294.133 76.4C296 75.7333 296.133 76 294.267 79.4667C293.2 81.6 291.867 84.6667 291.467 86.2667C290.533 89.0667 290.933 89.3333 295.733 89.3333C303.333 89.3333 306.533 93.3333 307.6 104.267C308 109.2 307.733 117.733 306.8 123.6C306 129.333 305.067 142.8 304.8 153.467C304.533 164.133 303.733 174 302.933 175.467C302.133 176.8 299.733 179.733 297.6 181.733C294.267 184.933 293.467 186.933 292.8 194.4C290.933 212.267 281.6 242.8 274 255.867C260.933 278.133 232.133 310.4 217.467 318.933C214.133 321.067 206.533 324.533 200.8 326.8C191.467 330.4 188.533 330.933 176.133 330.933C156.133 331.2 149.467 328.667 124 311.6C112.667 304 107.2 299.6 94 286.667C77.4666 270.4 69.3333 259.867 63.3333 246.667C62.1333 244.133 59.8666 239.467 58.4 236.267C54.9333 229.067 50.6666 209.467 50.6666 201.067C50.6666 195.867 50.2666 194.667 48.2666 194.667C47.0666 194.667 43.8666 193.2 41.2 191.467C35.7333 187.733 33.2 181.333 30 162.667C28.9333 156.133 27.0667 148.267 25.8667 145.067C22.8 136.4 21.7333 110.933 24.4 106C28.1333 98.5333 31.0667 96.9333 38.6667 98C44.5333 98.8 45.3333 99.2 44.6666 101.467C44.1333 102.933 44.5333 105.067 45.4666 106.267C46.4 107.333 47.0666 110.267 46.8 112.667C46.6666 115.067 47.0666 120.533 47.8666 124.8C48.6666 129.2 49.4666 134.8 49.8666 137.333C50.4 142.267 54.2666 153.067 56.2666 155.2C56.8 156 57.3333 157.867 57.3333 159.467C57.3333 161.067 58.5333 163.867 60 165.733C61.4666 167.6 62.6666 170.267 62.6666 171.733C62.6666 174.133 64.5333 178.667 68.2666 185.333C68.8 186.4 69.8666 188.667 70.6666 190.267C71.3333 192 72.5333 193.333 73.3333 193.333C74.1333 193.333 76.1333 196.667 78 200.667C79.7333 204.667 82.1333 208.4 83.3333 208.8C84.5333 209.333 85.2 210.4 84.8 211.333C84.1333 213.067 99.4666 230.8 101.2 230.267C101.867 230.133 104 231.733 106 233.867L109.733 237.867L112.933 234.133C114.667 232.133 115.867 229.467 115.467 228.267C113.6 221.6 115.733 206.667 118.667 206.667C119.333 206.667 121.867 203.333 124.267 199.333C126.667 195.333 129.2 192.267 130 192.533C130.667 192.8 132.267 192.533 133.467 191.867C134.933 191.067 136.267 191.467 137.467 192.8C138.933 194.533 139.733 194.267 143.867 190.267C150.4 184 162.8 176 165.733 176C167.067 176 169.333 176.667 170.8 177.333C172.933 178.533 173.6 178.133 174.933 175.333C177.2 170.267 174.4 168.267 164.267 167.867C155.067 167.467 151.067 165.6 152.4 162.133C153.733 158.667 159.467 156.533 162 158.667C164.8 160.933 164.533 162.667 161.333 162.667C159.867 162.667 158.667 162 158.667 161.067C158.667 159.867 158.267 159.867 157.2 160.933C156.4 161.733 156.133 163.067 156.533 163.867C157.6 165.6 169.2 164.8 173.2 162.8C174.8 161.867 177.2 161.6 178.533 162C183.6 163.6 196.4 154.4 193.6 151.333C193.067 150.667 193.333 150.667 194.267 151.2C195.2 151.733 197.2 150.8 198.8 149.2L201.733 146.267L204.267 149.333C206.8 152.533 207.467 160.667 205.333 164C204 166.133 203.733 166 201.6 160.933C199.867 156.8 196.667 156 197.733 159.867C198.533 162.933 193.6 164.933 192.4 161.867C191.867 160.533 191.067 160.4 189.2 161.467C186.4 162.933 185.733 165.6 188.4 165.2C189.2 165.067 191.6 165.333 193.733 166C196.533 166.8 197.067 167.333 196 168.8C195.067 169.733 193.6 170.133 192.533 169.733C190.933 169.2 190.8 170 191.467 174.267C192.267 179.867 190.933 183.6 186.533 188.4C184.267 190.8 184.133 190.667 183.333 183.467C182.4 175.867 180.533 172.933 178.667 176C177.6 177.733 178 182 179.467 186.933C180.533 190.267 176.133 194.133 170 195.333C163.333 196.667 153.867 196.4 151.2 194.933C148 193.2 142.4 194.667 141.6 197.6C141.2 199.2 140 200 138.267 199.733C134.267 199.2 131.867 204.4 133.6 209.467C135.2 214.133 137.867 214.4 148.667 210.667C157.6 207.6 167.2 207.067 166.267 209.6C166 210.533 164.667 211.2 163.333 210.933C162.133 210.667 158.667 211.467 155.867 212.533C152.933 213.733 148.533 214.667 146 214.667C142.8 214.667 141.333 215.333 141.333 216.667C141.333 217.733 140.267 218.667 138.8 218.667C135.467 218.667 124 228.933 124 232.133C124 233.467 124.667 234.667 125.333 234.667C126.133 234.667 126.4 236 126 237.6C125.067 241.333 130 249.867 132.267 248.533C133.333 247.867 133.467 248.667 132.8 251.2C130.667 259.867 137.6 265.333 152 266.133C160.133 266.667 161.333 266.4 162.667 264.133C164.8 260 164.267 255.333 161.067 251.333C157.867 247.333 156.267 236.267 158.267 232.667C159.867 229.867 173.2 224.933 175.2 226.533C176 227.067 181.467 227.467 187.333 227.333C193.2 227.2 198.8 227.333 199.733 227.733C202.133 228.533 201.733 232.667 198.533 238.933C197.067 241.867 194.667 248 193.2 252.4L190.667 260.533L194.533 264.533C196.667 266.8 198.933 270.4 199.467 272.667C200.8 278.533 201.2 278.8 204.533 276.667C207.333 274.8 207.733 274.8 210.133 278C213.2 282.133 215.2 282.267 214.133 278.267C213.467 275.333 217.333 270.4 220.667 269.867C221.467 269.867 223.067 269.6 224.267 269.6C225.467 269.467 226.933 268 227.333 266.267C228.933 261.467 232.4 254 233.733 253.2C234.533 252.667 234.667 250.667 234.4 248.8C233.6 244.667 235.333 242.8 236.4 246.667C237.2 250 242.4 250.267 244.667 247.067C246 245.2 246 244.4 244.533 242.933C243.467 242 242.667 240 242.667 238.533C242.667 237.067 241.733 235.6 240.667 235.2C237.6 234 238.267 232 241.733 232.4C243.333 232.533 245.067 233.867 245.467 235.333C246.4 238.133 246.533 237.867 248.667 231.333C248.933 230.267 250.8 229.333 252.667 229.333C255.067 229.333 256.4 228.4 257.333 226C258 224.267 260.267 220.933 262.267 218.667C264.267 216.267 266 213.733 266 212.933C266.133 212 266.533 210.4 267.067 209.333C268.8 205.2 272.133 195.333 272.4 193.333C272.533 192.267 273.467 190.667 274.4 189.867C275.467 189.2 276 187.6 275.733 186.4C275.6 185.2 277.333 182.4 279.733 180.133C282.4 177.467 284 174.667 284 172.4C284 170.533 284.4 169.333 284.933 169.733C286.533 171.467 289.2 165.867 289.333 160.4C289.333 157.333 290.267 150.533 291.333 145.2C293.733 134 294 122.4 292.133 111.467C291.333 107.2 291.067 103.2 291.333 102.667C291.733 102.133 291.067 99.4667 290 96.8C288.933 94.2667 288 89.8667 288 87.0667C288 80.9333 286.133 77.3333 284 79.4667C283.2 80.2667 281.733 86.9333 280.533 94.4C277.2 117.467 271.733 128 258.8 137.067C249.6 143.6 239.867 145.733 226.933 143.867C210.267 141.467 201.733 135.2 194.667 119.867C190.133 110.133 187.467 107.867 188.667 114.933C190.533 126.4 190.533 126.533 188.533 125.733C187.467 125.333 186.667 124.667 186.533 124.133C186.533 123.733 186.133 121.867 185.733 120C185.2 116.933 184.933 112 185.2 102.667C185.333 98.6667 182.933 92.2667 180.267 88.9333C177.733 86 170.267 86 167.867 88.8C166.8 90 162.933 99.4667 159.067 109.733C155.2 120 151.067 129.467 149.867 130.8C146.667 134.4 134.533 142.267 130.667 143.333C128.667 143.867 129.6 142.8 133.2 140.667C139.467 137.067 146.133 131.067 145.067 130C144.8 129.733 142.4 131.333 140 133.6C133.733 139.333 123.2 143.867 116 144.133L110 144.4L116.667 145.467C122.4 146.267 121.733 146.4 112.667 146.133C92.1333 145.467 79.7333 135.6 72.6666 114.133C68.8 102.533 65.0666 97.6 59.0666 96.5333C52.5333 95.4667 51.8666 94.9333 52.8 91.3333C53.4666 88.8 52.8 87.0667 50.5333 84.5333C45.4666 79.0667 35.4667 80.9333 40.5333 86.5333C42 88.1333 42.2666 89.8667 41.4667 92.6667L40.4 96.6667L36.8 89.6C34.8 85.6 33.3333 82.2667 33.6 82C33.8667 81.8667 36.6667 81.0667 40 80.2667C43.3333 79.6 50.5333 77.7333 56 76.2667C70.2666 72.4 97.8666 66.9333 108 65.8667C118.933 64.8 135.467 67.2 145.867 71.4667C152.933 74.2667 155.867 74.6667 173.067 74.6667C189.733 74.6667 192.667 74.4 195.733 72.1333C204.8 65.7333 220.133 61.6 235.333 61.4667C241.2 61.3333 255.067 62.5333 266 64ZM193.2 132.267C194 134.667 194.133 136 193.467 135.333C192.133 133.733 190.133 128 191.067 128C191.467 128 192.4 130 193.2 132.267ZM197.333 140C198.133 141.467 198.4 142.667 198.133 142.667C197.733 142.667 196.8 141.467 196 140C195.2 138.533 194.933 137.333 195.2 137.333C195.6 137.333 196.533 138.533 197.333 140ZM206 183.867C206.933 186.8 213.333 191.867 220.133 195.067C222.8 196.267 225.467 198.667 225.867 200.267C226.533 202.267 227.067 202.667 227.6 201.6C228 200.667 228.933 200.4 229.867 200.933C230.8 201.467 230.533 201.067 229.333 200C227.6 198.267 224 191.6 224 189.867C224 187.733 229.733 192.933 230.933 196.133C231.6 198.267 233.067 200 234.133 200C235.2 200 236 200.8 236.133 201.6C237.067 213.067 236.933 214.8 234.667 216C233.333 216.667 232 216.933 231.6 216.533C231.2 216.133 227.067 215.6 222.4 215.467C206.933 214.8 194.267 212.933 190.8 211.067C187.6 209.333 188.4 209.2 198.667 210.133C215.067 211.6 219.467 211.333 222 208.8C223.2 207.6 225.067 206.667 226.133 206.667C227.2 206.667 228 206 228 205.333C228 204.533 227.2 204 226.133 204C225.067 204 223.867 203.2 223.6 202.267C223.067 201.067 222.533 201.2 221.467 202.667C220.267 204.4 219.867 204.4 218.4 202.533C217.467 201.333 214.4 199.867 211.733 199.467C208.267 198.8 206.667 197.867 206.667 196.267C206.533 194.267 206.4 194.267 204.667 196.4C202.933 198.8 202.8 198.8 201.467 196.133C199.6 192.8 199.6 186.667 201.333 186.667C202.133 186.667 202.667 185.467 202.667 184C202.667 180.667 204.933 180.533 206 183.867ZM183.2 210.267C182.533 210.933 181.733 211.867 181.2 212.4C180.8 212.933 179.6 212.533 178.667 211.333C177.2 209.6 177.467 209.333 180.667 209.333C182.8 209.333 183.867 209.733 183.2 210.267Z" fill="black"/>
<path d="M303.733 102C304.267 105.333 304.133 105.467 301.6 104.133C300.133 103.333 298.533 102.667 298.133 102.667C296.667 102.667 297.333 106.4 300.133 112.667C302.133 117.333 303.333 118.533 304.4 117.467C306.267 115.6 306.4 101.867 304.4 99.8667C303.467 98.9333 303.2 99.4667 303.733 102Z" fill="black"/>
<path d="M274.267 106.4C272.8 115.067 267.6 124.4 260.533 130.533C257.067 133.467 254.933 136 255.6 136C256.267 136 259.333 133.867 262.533 131.2C270.667 124.267 277.467 110.4 276 104C275.333 101.2 275.067 101.467 274.267 106.4Z" fill="black"/>
<path d="M26.5333 106.267C24.2666 108.933 24.2666 117.333 26.5333 124.933C28.4 131.867 30.1333 132.267 31.2 126C31.7333 123.333 33.3333 119.333 34.6666 116.933C37.2 112.667 37.2 112.533 34.6666 108.267C31.7333 103.467 29.2 102.933 26.5333 106.267Z" fill="black"/>
<path d="M40.2667 128.933C40.2667 130.933 39.8667 134.8 39.3333 137.333C38.8 140.133 39.0667 143.6 40.1333 146C41.0667 148.133 41.8667 151.067 41.8667 152.267C42 153.6 42.6667 154.667 43.3333 154.533C44.9333 154.533 44.8 152.133 42.6667 144C41.8667 140.667 41.4667 135.467 42 132.4C42.4 129.2 42.2667 126.533 41.4667 126.133C40.6667 125.6 40.1333 126.8 40.2667 128.933Z" fill="black"/>
<path d="M126.933 210.667C122.933 215.067 118.4 224.267 119.867 225.733C121.067 226.933 125.6 225.2 129.733 221.6C132.533 219.067 132.667 217.333 130 217.333C128.933 217.333 128 216.533 128 215.467C128 214.533 128.933 212.933 130 212C131.067 211.067 132 209.867 132 209.2C132 207.2 129.6 207.867 126.933 210.667Z" fill="black"/>
</svg>
