<svg width="340" height="340" viewBox="0 0 340 340" fill="none" xmlns="http://www.w3.org/2000/svg">
<path d="M145.615 2.23869C144.082 2.51852 139.344 3.49794 135.164 4.33745C103.533 10.3539 73.5738 26.5844 50.0246 50.2305C17.8361 82.5514 1.39344 122.988 1.39344 170C1.39344 255.77 60.7541 324.889 145.057 337.342C163.033 340 195.5 338.321 211.803 333.984C278.967 315.794 326.066 263.465 335.82 196.025C338.607 177.416 336.934 143.556 332.475 126.765C316.73 66.6008 272.139 21.9671 212.082 6.01646C200.516 2.93827 195.082 2.3786 173.484 1.95885C159.689 1.81893 147.148 1.81893 145.615 2.23869ZM284.959 72.0576C294.992 78.214 299.451 85.4897 301.262 98.0823C302.098 104.658 302.516 133.621 302.098 178.395C301.402 256.609 301.959 252.412 291.09 263.045C288.025 265.984 283.148 269.342 280.361 270.321C276.32 271.72 253.467 272.14 172.09 272.14C115.377 272.14 66.6066 271.58 63.6803 271.021C57.1311 269.621 46.959 260.667 42.7787 252.551C39.8525 247.095 39.8525 245.835 40.1311 168.741L40.4098 90.5268L43.8934 84.5103C47.9344 77.5144 54.7623 71.9177 62.2869 69.1194C66.6066 67.5803 87.0902 67.3004 172.926 67.5803L278.27 67.8601L284.959 72.0576Z" fill="black"/>
<path d="M123.598 100.041C110.221 103.399 100.189 108.996 91.1311 118.23C76.7787 132.502 70.5082 148.593 70.7869 170.7C70.9262 196.864 80.959 216.593 100.746 229.605C113.566 238 124.992 241.218 141.434 241.218C163.73 241.218 177.246 235.901 192.434 221.49C205.672 208.897 213.197 190.428 213.197 170.7C213.197 137.539 195.918 112.354 166.098 102C155.369 98.2222 134.328 97.2428 123.598 100.041ZM150.631 160.765C157.459 167.621 157.598 171.819 151.328 178.675C147.426 183.012 145.754 183.852 141.295 183.712C130.426 183.432 124.434 170.28 131.123 161.745C137.254 153.909 143.525 153.49 150.631 160.765Z" fill="black"/>
<path d="M259.738 99.6214C259.18 100.461 258.484 119.07 258.066 140.757L257.369 180.354L253.328 187.49C250.541 192.527 247.754 195.325 244.41 196.724C240.648 198.263 238.697 200.782 234.795 208.477C226.016 225.967 229.221 237.86 242.738 237.86C250.68 237.86 254.164 235.202 259.18 225.267C262.385 218.691 263.361 215.053 263.361 208.477C263.361 201.901 264.197 198.263 267.123 192.667L271.025 185.391L271.443 145.514C272 101.16 271.582 97.9424 264.893 97.9424C262.664 97.9424 260.295 98.6419 259.738 99.6214Z" fill="black"/>
</svg>
