<svg width="340" height="340" viewBox="0 0 340 340" fill="none" xmlns="http://www.w3.org/2000/svg">
<path d="M148.313 2.78692C126.626 5.57381 103.259 13.3771 84.6502 24.1066C39.4568 50.164 9.79423 94.1967 2.79835 146.033C0.139909 165.262 1.679 195.082 6.15637 211.803C23.5062 277.713 73.5967 324.115 139.918 335.959C155.309 338.746 189.588 338.328 204 335.262C273.399 320.492 324.749 268.516 336.502 200.934C339.16 185.746 339.16 154.254 336.502 139.205C324.609 71.623 271.72 17.8361 204 4.87709C190.148 2.22955 161.045 1.11479 148.313 2.78692ZM284.173 76.3607C288.93 78.7295 293.267 82.4918 295.926 86.2541L300.123 92.2459L300.543 166.934C300.823 208.18 300.543 243.852 300.123 246.361C299.564 249.148 296.765 253.746 293.407 257.369C282.494 269.074 292.148 268.238 174.897 268.238C57.3663 268.238 66.8807 269.213 56.107 256.951C53.0288 253.467 50.0905 248.59 49.6708 246.082C49.251 243.713 48.9712 208.18 49.251 166.934L49.6708 92.2459L54.0082 86.1148C56.6667 82.4918 61.4239 78.5902 65.7613 76.2213L73.037 72.459H174.897H276.757L284.173 76.3607Z" fill="black"/>
<path d="M70.7983 96.9836C69.2592 100.885 69.8189 241.066 71.358 243.992C72.7572 246.639 75.4156 246.639 174.617 246.639C251.992 246.639 276.897 246.221 278.156 244.967C279.416 243.713 279.835 225.459 279.835 171.254C279.835 131.541 279.416 98.2377 278.996 96.9836C278.156 95.0328 267.802 94.7541 174.897 94.7541C81.9918 94.7541 71.6378 95.0328 70.7983 96.9836ZM147.053 115.934C162.724 121.229 171.679 137.533 166.362 151.467C164.823 155.648 156.288 165.123 151.811 167.492C146.634 170.418 139.358 171.254 133.901 169.861C127.325 168.189 117.251 159.27 114.033 152.303C108.296 140.459 114.872 125.41 128.724 118.025C136.839 113.844 139.918 113.426 147.053 115.934ZM259.407 129.729C264.025 135.164 264.025 137.254 258.988 142.27L254.93 146.311H231.004C208.198 146.311 207.078 146.172 203.44 143.107C198.823 139.066 198.543 133.492 202.881 128.754C206.099 125.41 206.519 125.41 231.004 125.41H255.77L259.407 129.729ZM259.407 164.566C264.025 170 264.025 172.09 258.988 177.107L254.93 181.148H231.004C208.198 181.148 207.078 181.008 203.44 177.943C198.823 173.902 198.543 168.328 202.881 163.59C206.099 160.246 206.519 160.246 231.004 160.246H255.77L259.407 164.566ZM163.984 186.164C172.658 189.09 180.914 196.475 185.251 205.115C190.008 214.59 190.008 220.443 185.251 224.205C181.613 226.992 179.934 227.131 139.918 227.131C99.9012 227.131 98.2222 226.992 94.5844 224.205C92.0658 222.254 90.9465 220.025 90.9465 216.959C91.0864 205.672 103.959 189.787 115.852 186.164C125.226 183.238 155.588 183.238 163.984 186.164Z" fill="black"/>
</svg>
