<?xml version="1.0" standalone="no"?>
<!DOCTYPE svg PUBLIC "-//W3C//DTD SVG 20010904//EN"
 "http://www.w3.org/TR/2001/REC-SVG-20010904/DTD/svg10.dtd">
<svg version="1.0" xmlns="http://www.w3.org/2000/svg"
 width="423.000000pt" height="329.000000pt" viewBox="0 0 423.000000 329.000000"
 preserveAspectRatio="xMidYMid meet">

<g transform="translate(0.000000,329.000000) scale(0.100000,-0.100000)"
fill="#000000" stroke="none">
<path d="M600 3153 c-166 -29 -294 -137 -356 -298 -18 -48 -19 -96 -22 -1140
-2 -679 1 -1114 7 -1153 29 -189 180 -342 367 -372 79 -13 2999 -13 3078 0
159 26 297 145 353 306 16 45 18 139 21 1119 2 714 -1 1097 -8 1150 -14 106
-53 187 -125 260 -64 63 -148 109 -234 125 -52 10 -3024 13 -3081 3z m1371
-466 c193 -51 351 -140 484 -272 132 -132 220 -289 273 -484 22 -85 26 -115
26 -261 0 -146 -3 -176 -26 -261 -51 -189 -138 -345 -265 -475 -406 -415
-1092 -418 -1499 -6 -404 408 -404 1082 1 1487 148 148 316 236 543 286 125
27 330 21 463 -14z m1593 22 c14 -7 30 -25 36 -42 6 -20 10 -224 10 -587 0
-631 4 -592 -85 -770 -51 -102 -52 -106 -38 -134 11 -21 14 -49 11 -100 -4
-61 -13 -86 -62 -184 -71 -142 -111 -187 -182 -208 -69 -20 -132 -11 -182 26
-55 40 -77 90 -77 175 1 65 5 78 59 185 85 168 116 203 201 219 26 6 37 20 90
121 l60 115 5 573 5 574 28 24 c31 26 80 32 121 13z"/>
<path d="M1636 1865 c-84 -30 -130 -99 -130 -195 0 -87 36 -149 109 -188 40
-21 150 -21 191 1 125 66 151 233 50 333 -60 61 -138 78 -220 49z"/>
</g>
</svg>
