<svg width="300" height="300" viewBox="0 0 300 300" fill="none" xmlns="http://www.w3.org/2000/svg">
<g clip-path="url(#clip0_16_15)">
<circle cx="150" cy="150" r="150" fill="black"/>
<path d="M212.305 129.697L211.909 128.313L211.25 127.521L210.459 126.598C209.905 126.02 209.239 125.559 208.503 125.245C207.766 124.93 206.974 124.768 206.173 124.768C205.372 124.768 204.579 124.93 203.843 125.245C203.106 125.559 202.441 126.02 201.887 126.598L201.096 127.521L200.568 128.576C200.54 128.971 200.54 129.368 200.568 129.763C200.508 130.157 200.508 130.557 200.568 130.95C200.547 131.738 200.682 132.522 200.964 133.258C201.272 133.996 201.719 134.668 202.282 135.236C202.834 135.819 203.511 136.269 204.261 136.555C205.017 136.854 205.821 137.01 206.634 137.016H207.821L209.008 136.621L210.063 136.093C210.304 135.73 210.482 135.329 210.591 134.906C211.173 134.354 211.624 133.678 211.909 132.928C212.214 132.197 212.371 131.413 212.371 130.62C212.367 130.312 212.345 130.003 212.305 129.697V129.697Z" fill="white"/>
<path d="M224.437 105.366L224.042 104.179L223.514 103.124L222.723 101.937C222.169 101.359 221.504 100.899 220.767 100.584C220.031 100.27 219.238 100.108 218.437 100.108C217.636 100.108 216.844 100.27 216.107 100.584C215.37 100.899 214.705 101.359 214.151 101.937L213.36 102.861L212.832 103.916C212.804 104.311 212.804 104.707 212.832 105.102C212.773 105.496 212.773 105.896 212.832 106.289C212.811 107.077 212.946 107.861 213.228 108.597C213.536 109.335 213.984 110.007 214.547 110.575C215.099 111.158 215.775 111.609 216.525 111.894C217.281 112.193 218.086 112.349 218.899 112.356H220.086L221.272 111.96L222.327 111.432C222.675 111.219 222.986 110.952 223.251 110.641C223.833 110.089 224.284 109.413 224.569 108.663C224.651 107.958 224.606 107.243 224.437 106.553C224.467 106.158 224.467 105.761 224.437 105.366V105.366Z" fill="white"/>
<path d="M194.04 74.9031L193.645 73.7163L193.117 72.6613L192.326 71.7381C191.772 71.1597 191.107 70.6994 190.37 70.3849C189.634 70.0705 188.841 69.9083 188.04 69.9083C187.239 69.9083 186.446 70.0705 185.71 70.3849C184.973 70.6994 184.308 71.1597 183.754 71.7381L182.963 72.6613L182.435 73.7163C182.407 74.1114 182.407 74.508 182.435 74.9031C182.376 75.2965 182.376 75.6966 182.435 76.09C182.414 76.8778 182.549 77.662 182.831 78.3978C183.139 79.1361 183.587 79.8078 184.15 80.3759C184.702 80.9586 185.378 81.4093 186.128 81.6947C186.884 81.9936 187.689 82.1501 188.502 82.1563H189.688L190.875 81.7606L191.469 81.1672C191.816 80.9535 192.128 80.6864 192.392 80.3759C192.974 79.824 193.425 79.1479 193.711 78.3978C194.015 77.6666 194.172 76.8822 194.172 76.09C194.158 75.6917 194.114 75.2949 194.04 74.9031V74.9031Z" fill="white"/>
<path d="M169.644 99.2341L169.248 98.0472L168.72 96.9922L167.929 96.0691C167.375 95.4907 166.71 95.0303 165.973 94.7159C165.237 94.4014 164.444 94.2393 163.643 94.2393C162.842 94.2393 162.05 94.4014 161.313 94.7159C160.577 95.0303 159.911 95.4907 159.357 96.0691L158.5 97.0582L157.973 98.1132C157.944 98.5083 157.944 98.9049 157.973 99.3C157.913 99.6934 157.913 100.094 157.973 100.487C157.952 101.275 158.086 102.059 158.368 102.795C158.676 103.533 159.124 104.205 159.687 104.773C160.239 105.355 160.915 105.806 161.665 106.092C162.421 106.39 163.226 106.547 164.039 106.553H165.226L166.413 106.158L167.468 105.63C167.815 105.416 168.126 105.149 168.391 104.839C168.973 104.287 169.424 103.611 169.709 102.861C170.014 102.129 170.171 101.345 170.171 100.553C170.034 100.099 169.858 99.6573 169.644 99.2341Z" fill="white"/>
<path d="M133.114 74.9031L132.718 73.7162L132.125 72.7272L131.334 71.804C130.78 71.2256 130.114 70.7653 129.378 70.4508C128.641 70.1364 127.849 69.9742 127.048 69.9742C126.247 69.9742 125.454 70.1364 124.718 70.4508C123.981 70.7653 123.316 71.2256 122.762 71.804L121.971 72.7272L121.443 73.7822C121.415 74.1773 121.415 74.5739 121.443 74.969C121.383 75.3624 121.383 75.7625 121.443 76.1559C121.422 76.9437 121.557 77.7279 121.839 78.4637C122.147 79.202 122.594 79.8737 123.157 80.4418C123.709 81.0245 124.386 81.4752 125.136 81.7606C125.892 82.0595 126.696 82.216 127.509 82.2222H128.696L129.883 81.8265L130.938 81.299C131.285 81.0853 131.597 80.8183 131.861 80.5078C132.444 79.9559 132.895 79.2797 133.18 78.5297C133.485 77.7984 133.642 77.014 133.642 76.2219C133.505 75.7676 133.328 75.3263 133.114 74.9031V74.9031Z" fill="white"/>
<path d="M168.523 197.019C168.754 196.012 168.723 194.962 168.435 193.97C168.146 192.977 167.609 192.075 166.874 191.349L106.673 131.082C105.943 130.34 105.033 129.799 104.033 129.51C103.033 129.222 101.975 129.195 100.962 129.434C99.9485 129.672 99.0135 130.167 98.2469 130.872C97.4803 131.576 96.9079 132.466 96.5847 133.456L66.1875 223.856C65.8159 224.931 65.7543 226.09 66.0097 227.198C66.2651 228.307 66.8271 229.322 67.6317 230.126C68.4363 230.931 69.4509 231.493 70.5597 231.748C71.6685 232.004 72.8268 231.942 73.9022 231.571L164.237 201.437C165.28 201.15 166.228 200.589 166.982 199.812C167.735 199.035 168.267 198.071 168.523 197.019ZM119.531 203.613L94.4747 178.491L97.7716 168.6L129.488 200.316L119.531 203.613ZM90.1228 191.415L106.607 207.899L81.8806 216.141L90.1228 191.415ZM142.345 196.03L102.058 155.677L105.025 146.709L151.181 192.865L142.345 196.03Z" fill="white"/>
<path d="M179.93 133.719L182.765 117.169L199.315 114.334C200.549 114.121 201.687 113.531 202.572 112.645C203.458 111.76 204.048 110.622 204.261 109.388L207.096 92.8381L223.646 90.0028C224.434 89.8686 225.188 89.5805 225.865 89.155C226.541 88.7294 227.127 88.1748 227.59 87.5227C228.052 86.8706 228.381 86.1338 228.559 85.3545C228.736 84.5751 228.759 83.7684 228.625 82.9805C228.49 82.1925 228.202 81.4387 227.777 80.762C227.351 80.0854 226.796 79.4992 226.144 79.037C225.492 78.5747 224.756 78.2454 223.976 78.0678C223.197 77.8903 222.39 77.868 221.602 78.0022L200.832 81.5628C199.598 81.7759 198.46 82.3657 197.575 83.2511C196.689 84.1365 196.1 85.2742 195.887 86.5081L193.051 103.058L176.501 105.894C175.267 106.107 174.129 106.697 173.244 107.582C172.358 108.467 171.769 109.605 171.556 110.839L168.72 127.389L151.906 130.291C150.374 130.514 148.984 131.314 148.023 132.529C147.062 133.743 146.602 135.279 146.737 136.822C146.871 138.365 147.591 139.798 148.749 140.827C149.906 141.856 151.413 142.404 152.961 142.357H154.016L174.787 138.797C176.075 138.614 177.271 138.022 178.197 137.107C179.123 136.193 179.73 135.005 179.93 133.719V133.719Z" fill="white"/>
<path d="M246.856 140.643L229.317 134.049C227.957 133.531 226.457 133.519 225.089 134.016C223.721 134.512 222.577 135.483 221.866 136.753L215.272 148.555L202.612 143.808C201.252 143.29 199.752 143.278 198.384 143.774C197.016 144.271 195.873 145.242 195.161 146.511L188.567 158.248L175.907 153.501C175.158 153.224 174.362 153.097 173.564 153.127C172.766 153.158 171.982 153.346 171.256 153.679C170.531 154.013 169.878 154.486 169.336 155.072C168.793 155.658 168.371 156.345 168.094 157.094C167.817 157.843 167.69 158.64 167.721 159.438C167.751 160.236 167.939 161.02 168.272 161.745C168.606 162.471 169.079 163.124 169.665 163.666C170.251 164.209 170.938 164.631 171.687 164.908L189.227 171.502C190.587 172.019 192.087 172.031 193.455 171.535C194.823 171.039 195.966 170.067 196.678 168.798L203.272 156.995L215.932 161.743C217.291 162.261 218.792 162.273 220.16 161.776C221.527 161.28 222.671 160.309 223.382 159.039L229.976 147.237L242.636 151.984C243.385 152.266 244.182 152.397 244.982 152.37C245.782 152.343 246.568 152.16 247.297 151.829C248.026 151.498 248.682 151.027 249.229 150.443C249.775 149.859 250.201 149.173 250.483 148.423C250.764 147.674 250.895 146.877 250.869 146.078C250.842 145.278 250.658 144.491 250.328 143.763C249.997 143.034 249.526 142.378 248.942 141.831C248.357 141.285 247.671 140.858 246.922 140.577L246.856 140.643Z" fill="white"/>
<path d="M148.873 108.531L144.257 95.8053L156.06 89.2116C157.326 88.5127 158.301 87.3846 158.809 86.0306C159.317 84.6765 159.324 83.1856 158.83 81.8266L154.28 68.9687L166.083 62.375C167.499 61.5968 168.549 60.2878 169 58.7359C169.451 57.184 169.268 55.5163 168.49 54.0998C167.711 52.6833 166.402 51.634 164.85 51.1826C163.298 50.7313 161.631 50.9149 160.214 51.6931L143.862 60.9244C142.596 61.6232 141.621 62.7513 141.113 64.1054C140.605 65.4594 140.598 66.9504 141.092 68.3094L145.708 80.9694L133.905 87.5631C132.639 88.2619 131.664 89.39 131.157 90.7441C130.649 92.0982 130.641 93.5891 131.136 94.9481L135.752 107.674L123.883 114.268C123.181 114.653 122.563 115.173 122.062 115.797C121.562 116.422 121.189 117.139 120.966 117.907C120.514 119.459 120.698 121.126 121.476 122.543C122.254 123.959 123.563 125.009 125.115 125.46C126.667 125.912 128.335 125.728 129.751 124.95L146.17 115.916C147.424 115.207 148.385 114.074 148.88 112.721C149.376 111.368 149.373 109.883 148.873 108.531V108.531Z" fill="white"/>
<path d="M102.783 99.7616C102.016 99.9816 101.3 100.351 100.676 100.848C100.052 101.345 99.5324 101.96 99.1466 102.658C98.7607 103.357 98.5163 104.124 98.4275 104.917C98.3386 105.71 98.407 106.512 98.6287 107.278L101.134 115.916C101.504 117.17 102.268 118.271 103.314 119.055C104.359 119.839 105.63 120.265 106.937 120.268C107.505 120.35 108.083 120.35 108.651 120.268C109.418 120.048 110.134 119.679 110.758 119.182C111.382 118.685 111.902 118.07 112.287 117.371C112.673 116.673 112.918 115.906 113.007 115.113C113.095 114.32 113.027 113.518 112.805 112.751L110.3 104.113C110.101 103.329 109.747 102.592 109.259 101.946C108.771 101.3 108.159 100.759 107.459 100.353C106.758 99.9475 105.983 99.6863 105.18 99.5847C104.377 99.4831 103.562 99.5433 102.783 99.7616V99.7616Z" fill="white"/>
<path d="M149.664 162.93C150.917 162.926 152.138 162.534 153.159 161.809L156.72 159.303C157.373 158.84 157.93 158.252 158.356 157.574C158.783 156.896 159.072 156.14 159.207 155.351C159.341 154.561 159.319 153.752 159.141 152.971C158.963 152.19 158.634 151.451 158.17 150.797C157.707 150.143 157.12 149.587 156.441 149.161C155.763 148.734 155.008 148.445 154.218 148.31C153.428 148.176 152.619 148.198 151.838 148.376C151.057 148.553 150.318 148.883 149.664 149.347L146.104 151.852C145.027 152.586 144.216 153.648 143.789 154.879C143.363 156.11 143.344 157.446 143.736 158.689C144.128 159.932 144.91 161.015 145.966 161.779C147.022 162.543 148.295 162.946 149.598 162.93H149.664Z" fill="white"/>
<path d="M124.542 131.741C123.407 132.879 122.769 134.42 122.769 136.027C122.769 137.634 123.407 139.176 124.542 140.313L127.048 142.819C127.602 143.42 128.272 143.903 129.017 144.238C129.762 144.574 130.568 144.756 131.385 144.772C132.202 144.789 133.014 144.64 133.772 144.335C134.531 144.03 135.22 143.575 135.798 142.997C136.376 142.419 136.831 141.73 137.136 140.972C137.441 140.213 137.59 139.401 137.573 138.584C137.557 137.767 137.375 136.961 137.039 136.216C136.704 135.471 136.221 134.801 135.62 134.247L133.114 131.741C131.977 130.606 130.435 129.968 128.828 129.968C127.221 129.968 125.679 130.606 124.542 131.741V131.741Z" fill="white"/>
<path d="M191.469 193.261H192.524C193.325 193.308 194.127 193.198 194.885 192.935C195.644 192.673 196.343 192.264 196.943 191.731C197.543 191.198 198.032 190.553 198.382 189.831C198.733 189.109 198.938 188.325 198.986 187.524C199.033 186.723 198.923 185.921 198.66 185.163C198.398 184.404 197.988 183.705 197.456 183.105C196.923 182.505 196.277 182.016 195.555 181.665C194.834 181.315 194.05 181.11 193.249 181.062L178.281 178.755C177.493 178.62 176.686 178.643 175.907 178.82C175.128 178.998 174.391 179.327 173.739 179.789C173.087 180.252 172.532 180.838 172.107 181.514C171.681 182.191 171.393 182.945 171.259 183.733C171.125 184.521 171.147 185.328 171.324 186.107C171.502 186.886 171.831 187.623 172.294 188.275C172.756 188.927 173.342 189.482 174.019 189.907C174.695 190.333 175.449 190.621 176.237 190.755L191.469 193.261Z" fill="white"/>
</g>
<defs>
<clipPath id="clip0_16_15">
<rect width="300" height="300" fill="white"/>
</clipPath>
</defs>
</svg>
