<svg width="300" height="300" viewBox="0 0 300 300" fill="none" xmlns="http://www.w3.org/2000/svg">
<g clip-path="url(#clip0_16_31)">
<circle cx="150" cy="150" r="150" fill="black"/>
<g clip-path="url(#clip1_16_31)">
<path d="M221 125.75C221 158.866 177.734 217.824 158.764 242.15C154.216 247.947 145.784 247.947 141.236 242.15C122.266 217.824 79 158.866 79 125.75C79 85.5859 110.802 53 150 53C189.198 53 221 85.5859 221 125.75Z" fill="white"/>
<path d="M146.368 85.8747C147.797 82.7752 152.203 82.7752 153.632 85.8747L164.58 109.609C165.162 110.872 166.36 111.742 167.741 111.906L193.696 114.983C197.086 115.385 198.447 119.574 195.941 121.892L176.752 139.638C175.73 140.582 175.273 141.99 175.544 143.354L180.638 168.99C181.303 172.338 177.739 174.927 174.761 173.26L151.954 160.494C150.74 159.814 149.26 159.814 148.046 160.494L125.239 173.26C122.261 174.927 118.697 172.338 119.362 168.99L124.456 143.354C124.727 141.99 124.27 140.582 123.248 139.638L104.059 121.892C101.553 119.574 102.914 115.385 106.304 114.983L132.259 111.906C133.64 111.742 134.838 110.872 135.42 109.609L146.368 85.8747Z" fill="black"/>
</g>
</g>
<defs>
<clipPath id="clip0_16_31">
<rect width="300" height="300" fill="white"/>
</clipPath>
<clipPath id="clip1_16_31">
<rect width="142" height="194" fill="white" transform="translate(79 53)"/>
</clipPath>
</defs>
</svg>
