<?xml version="1.0" standalone="no"?>
<!DOCTYPE svg PUBLIC "-//W3C//DTD SVG 20010904//EN"
 "http://www.w3.org/TR/2001/REC-SVG-20010904/DTD/svg10.dtd">
<svg version="1.0" xmlns="http://www.w3.org/2000/svg"
 width="600.000000pt" height="600.000000pt" viewBox="0 0 600.000000 600.000000"
 preserveAspectRatio="xMidYMid meet">

<g transform="translate(0.000000,600.000000) scale(0.100000,-0.100000)"
fill="#000000" stroke="none">
<path d="M2735 5990 c-423 -43 -839 -171 -1189 -366 -734 -409 -1259 -1098
-1460 -1914 -61 -244 -80 -412 -81 -695 0 -272 9 -376 55 -605 86 -428 255
-816 508 -1165 483 -666 1189 -1093 2012 -1216 129 -19 197 -23 405 -24 272 0
376 9 605 55 428 86 816 255 1165 508 666 483 1093 1189 1216 2012 19 129 23
197 24 405 0 272 -9 376 -55 605 -88 442 -266 842 -532 1197 -483 647 -1183
1064 -1983 1183 -160 24 -540 35 -690 20z m583 -1020 c69 -31 92 -118 48 -185
-9 -13 -74 -56 -145 -95 l-129 -71 50 -142 c72 -205 66 -221 -115 -320 -152
-83 -142 -61 -86 -212 26 -71 48 -144 49 -161 0 -61 -34 -90 -225 -196 -99
-55 -194 -102 -210 -105 -69 -11 -145 53 -145 122 0 64 28 93 165 170 80 45
129 78 127 87 -2 7 -23 68 -48 136 -24 67 -44 135 -44 150 0 52 34 87 142 147
57 32 115 65 129 74 l27 16 -50 135 c-55 149 -58 192 -17 236 23 25 359 218
394 227 33 8 39 7 83 -13z m512 -388 c41 -30 64 -82 56 -125 -16 -83 -96 -127
-169 -92 -46 21 -67 54 -74 113 -4 39 -1 52 18 76 44 56 114 67 169 28z
m-1207 -11 c47 -42 64 -96 44 -144 -28 -66 -100 -93 -172 -63 -43 19 -64 51
-72 114 -5 49 -4 53 30 87 31 31 41 35 86 35 41 0 56 -5 84 -29z m1905 -149
c26 -17 52 -68 52 -103 0 -32 -29 -86 -55 -103 -13 -8 -101 -29 -196 -46 -95
-16 -176 -33 -180 -37 -4 -5 -19 -82 -34 -173 -15 -91 -34 -177 -41 -192 -22
-42 -59 -55 -236 -84 -89 -15 -167 -30 -172 -35 -5 -4 -21 -82 -37 -173 -16
-92 -36 -180 -44 -197 -9 -16 -30 -36 -48 -44 -38 -17 -424 -85 -484 -85 -33
0 -50 7 -77 31 -57 50 -61 121 -8 180 26 29 36 32 207 61 99 17 184 34 189 39
5 4 21 82 37 173 16 92 35 179 43 195 22 41 62 55 247 86 l166 28 28 166 c31
187 45 225 87 247 40 21 454 94 497 87 19 -2 45 -12 59 -21z m-1190 -322 c41
-25 77 -99 67 -138 -18 -73 -82 -112 -153 -93 -48 13 -81 48 -93 98 -13 58
-11 69 18 103 45 54 104 65 161 30z m-1170 -115 c45 -38 108 -249 91 -309 -21
-78 -114 -110 -187 -66 -38 24 -50 49 -87 183 -22 83 -25 103 -15 132 27 82
134 114 198 60z m2262 0 c36 -18 55 -54 64 -117 6 -42 4 -50 -23 -80 -27 -30
-34 -33 -90 -33 -55 0 -64 3 -92 32 -27 26 -33 41 -37 87 -4 53 -3 57 31 91
29 29 42 35 76 35 23 0 55 -7 71 -15z m-250 -490 c64 -33 89 -107 55 -165 -8
-14 -17 -32 -21 -40 -12 -25 -26 -30 -82 -30 -48 0 -58 4 -88 34 -31 31 -34
39 -34 93 0 52 3 63 28 85 44 41 92 49 142 23z m-1449 -711 c346 -346 634
-641 640 -656 6 -15 8 -43 5 -62 -15 -77 28 -60 -979 -395 -577 -193 -947
-311 -971 -311 -30 0 -45 7 -71 33 -63 63 -76 11 264 1025 171 507 315 932
321 943 20 37 71 61 119 56 43 -5 55 -16 672 -633z m-39 559 c68 -67 81 -127
40 -191 -31 -48 -106 -66 -161 -38 -41 22 -108 99 -116 135 -14 66 17 124 79
145 57 20 100 6 158 -51z m2070 -84 c224 -83 258 -107 258 -181 0 -48 -25 -94
-62 -114 -34 -19 -86 -17 -148 7 -30 12 -90 34 -132 50 l-77 28 -68 -122
c-109 -198 -117 -201 -317 -128 -76 28 -141 51 -145 51 -3 0 -38 -57 -76 -127
-75 -136 -103 -163 -165 -163 -39 0 -390 130 -430 159 -37 27 -51 60 -46 111
3 35 11 51 40 77 49 45 84 43 228 -11 64 -25 124 -46 133 -48 12 -2 37 35 89
127 69 123 76 131 119 149 l46 19 147 -53 c120 -44 147 -51 155 -39 5 8 39 67
75 132 69 123 92 146 151 147 18 0 119 -32 225 -71z m-1631 -242 c92 -62 78
-159 -35 -236 -60 -41 -69 -43 -116 -39 -59 6 -95 34 -109 86 -10 33 -9 41 11
94 9 23 99 96 138 111 33 12 79 6 111 -16z m596 -612 c178 -28 205 -37 233
-73 24 -30 27 -100 5 -141 -16 -32 -69 -61 -112 -61 -15 0 -104 13 -197 29
-169 28 -170 29 -204 66 -32 34 -34 41 -29 88 4 42 10 56 41 84 44 41 55 41
263 8z"/>
<path d="M2075 2970 l-27 -82 400 -401 401 -401 68 23 c37 13 74 27 80 30 8 4
-160 179 -441 460 l-454 453 -27 -82z"/>
<path d="M1925 2520 l-29 -91 248 -248 248 -248 94 31 94 30 -307 308 c-169
170 -310 308 -314 308 -3 0 -18 -41 -34 -90z"/>
<path d="M1728 1928 c-43 -127 -76 -233 -75 -235 2 -1 108 32 235 75 l232 77
-158 158 -157 157 -77 -232z"/>
</g>
</svg>
