<svg width="340" height="340" viewBox="0 0 340 340" fill="none" xmlns="http://www.w3.org/2000/svg">
<path d="M151.189 2.92622C128.475 5.01639 104.508 12.8197 84.0246 24.6639C31.4918 55.1803 1.39343 108.41 1.39343 170.697C1.39343 251.516 54.9016 317.984 134.049 335.262C149.656 338.746 180.451 339.303 197.172 336.656C263.361 325.787 314.918 278.828 332.754 213.197C336.098 201.074 336.377 197.59 336.377 170.697C336.516 142.828 336.377 140.738 332.615 127.5C319.098 79.1475 289.975 42.5 248.033 21.041C218.213 5.71311 185.328 -0.418038 151.189 2.92622ZM271.164 62.0082C275.762 63.4016 279.803 65.9098 283.844 69.9508C294.713 81.2377 294.016 74.8278 294.016 170C294.016 238.279 293.598 255.975 292.205 259.598C289.139 266.844 282.729 273.254 275.205 276.738L268.238 280.082H168.746C70.9262 280.082 69.1147 280.082 63.2623 277.156C59.918 275.623 55.3197 272 52.8115 269.352C43.4754 258.623 43.8934 263.082 43.8934 170C43.8934 85.6967 43.8934 85.6967 46.959 79.9836C51 72.459 61.4508 63.2623 68 61.5901C71.0656 60.7541 110.779 60.1967 168.746 60.0574C248.869 59.918 265.311 60.1967 271.164 62.0082Z" fill="black"/>
<path d="M69.2541 85.9754C67.7213 87.3689 68.1393 246.918 69.5328 245.943C70.2295 245.525 78.5901 235.631 87.9262 223.926C97.2623 212.361 105.902 201.91 107.016 200.934C111.893 197.033 115.238 198.984 125.549 211.385C130.984 218.213 136.279 223.787 137.115 223.926C137.951 224.205 150.213 208.598 164.426 189.369C178.5 170.139 191.598 153.418 193.27 152.164C195.5 150.77 197.451 150.492 199.262 151.328C200.656 152.025 216.82 172.926 235.074 197.73C253.328 222.672 269.074 243.156 270.049 243.574C272.139 244.27 272.557 94.1967 270.328 88.623L268.934 85H169.582C114.82 85 69.6721 85.418 69.2541 85.9754ZM124.156 104.648C130.705 106.877 139.066 115.238 141.016 121.369C143.385 129.451 141.434 136 134.467 142.828C128.057 149.377 121.926 151.467 113.844 149.934C103.115 147.984 93.3606 133.91 95.3115 123.32C96.5655 117.049 103.533 108.967 110.779 105.762C117.467 102.697 118.025 102.697 124.156 104.648Z" fill="black"/>
</svg>
