<svg width="300" height="300" viewBox="0 0 300 300" fill="none" xmlns="http://www.w3.org/2000/svg">
<g clip-path="url(#clip0_17_57)">
<circle cx="150" cy="150" r="150" fill="black"/>
<path d="M150 150C176.512 150 198 128.512 198 102C198 75.4875 176.512 54 150 54C123.488 54 102 75.4875 102 102C102 128.512 123.488 150 150 150ZM132.863 168C95.925 168 66 197.925 66 234.862C66 241.012 70.9875 246 77.1375 246H222.862C229.012 246 234 241.012 234 234.862C234 197.925 204.075 168 167.138 168H132.863Z" fill="white"/>
</g>
<defs>
<clipPath id="clip0_17_57">
<rect width="300" height="300" fill="white"/>
</clipPath>
</defs>
</svg>
