<?xml version="1.0" standalone="no"?>
<!DOCTYPE svg PUBLIC "-//W3C//DTD SVG 20010904//EN"
 "http://www.w3.org/TR/2001/REC-SVG-20010904/DTD/svg10.dtd">
<svg version="1.0" xmlns="http://www.w3.org/2000/svg"
 width="600.000000pt" height="600.000000pt" viewBox="0 0 600.000000 600.000000"
 preserveAspectRatio="xMidYMid meet">

<g transform="translate(0.000000,600.000000) scale(0.100000,-0.100000)"
fill="#000000" stroke="none">
<path d="M2735 5990 c-423 -43 -839 -171 -1189 -366 -734 -409 -1259 -1098
-1460 -1914 -61 -244 -80 -412 -81 -695 0 -272 9 -376 55 -605 86 -428 255
-816 508 -1165 483 -666 1189 -1093 2012 -1216 129 -19 197 -23 405 -24 272 0
376 9 605 55 428 86 816 255 1165 508 666 483 1093 1189 1216 2012 19 129 23
197 24 405 0 272 -9 376 -55 605 -88 442 -266 842 -532 1197 -483 647 -1183
1064 -1983 1183 -160 24 -540 35 -690 20z m508 -1099 c334 -89 596 -352 689
-692 32 -118 32 -365 0 -482 -93 -337 -353 -596 -693 -689 -118 -32 -365 -32
-482 0 -337 93 -596 353 -689 693 -32 118 -32 365 0 482 92 336 361 603 688
686 117 30 118 30 269 26 102 -2 161 -8 218 -24z m387 -2279 c256 -62 460
-173 641 -349 257 -249 402 -574 403 -904 1 -123 0 -126 -29 -174 -22 -36 -45
-57 -84 -77 l-53 -28 -1508 0 -1508 0 -53 28 c-39 20 -62 41 -84 77 -29 48
-30 51 -29 174 1 318 133 626 371 872 216 223 485 359 798 402 17 3 260 4 540
2 478 -2 515 -3 595 -23z"/>
</g>
</svg>
